<?xml version="1.0" encoding="utf-8"?>
<!-- Generator: Adobe Illustrator 25.0.1, SVG Export Plug-In . SVG Version: 6.00 Build 0)  -->
<svg version="1.1" id="Layer_1" xmlns="http://www.w3.org/2000/svg" xmlns:xlink="http://www.w3.org/1999/xlink" x="0px" y="0px"
	 viewBox="0 0 110 104" style="enable-background:new 0 0 110 104;" xml:space="preserve">
<style type="text/css">
	.st0c{fill:#594A4E;}
	.st1c{fill:#F0BF0B;}
</style>
<g>
	<path class="st0c" d="M85.2,103.3C85.2,103.3,85.2,103.3,85.2,103.3l-20.8-0.4c-1.1,0-1.9-0.9-1.9-2V82.6c0-0.7,0-1.7-0.1-2.6
		c-0.3-4.7,2.3-8.8,8-12.3c5.3-3.6,12.7-8.5,14.8-11.5c0.9-1.2,1.6-2.1,2.4-3c1.2-1.3,4.2-4.7,7.9-5l3.4-21c0-0.3,0.1-0.5,0.1-0.8
		l0-0.3c0.3-2.2,1.8-6.1,8-6.4c1-0.1,1.9,0.7,2.1,1.7c1.4,8.6,0.8,27.1,0.7,33.1c0,0.8,0,1.3,0,1.5c-0.1,8.3-4.7,15.7-13.8,22.1
		c0,0-0.1,0.1-0.2,0.1C88,82.6,85.2,90.1,87.1,101c0.1,0.6-0.1,1.2-0.4,1.6C86.3,103.1,85.8,103.3,85.2,103.3z M66.4,99l16.5,0.3
		C81.4,88,85.1,79.7,93.7,74.7c8-5.6,11.9-11.8,12-18.8c0-0.2,0-0.8,0-1.5c0.4-14.3,0.3-24.5-0.4-30.4c-1.9,0.5-2.4,1.7-2.5,2.7
		l0,0.3c0,0.3-0.1,0.6-0.1,0.9l-3.4,21.4c0,0,0,0,0.1,0.1c1.8,1.8,3.4,5,0.4,9.7c-3.2,4.9-7.1,9-11.8,12.2c-0.9,0.6-1.6,1.2-2.3,1.8
		c-1.4,1.4-2.5,3-3.3,4.9c-0.4,1-1.6,1.4-2.6,1c-1-0.4-1.4-1.6-1-2.6c1-2.2,2.4-4.3,4.1-6c0.8-0.8,1.8-1.6,2.9-2.4
		c4.2-2.9,7.8-6.5,10.7-11c1.5-2.4,1.1-3.7,0.3-4.6c-0.8-0.3-2.6-0.5-6.3,3.6c-0.7,0.7-1.3,1.6-2.1,2.6C86,61.8,79.8,66.1,72.5,71
		c-4.4,2.7-6.4,5.6-6.2,8.7c0.1,1.1,0.1,2.1,0.1,2.9V99z"/>
</g>
<g>
	<path class="st0c" d="M24.8,103.3c-0.6,0-1.1-0.3-1.5-0.7c-0.4-0.5-0.5-1.1-0.4-1.6c2-10.9-0.9-18.4-8.7-22.9
		c-0.1,0-0.1-0.1-0.2-0.1C5,71.7,0.4,64.2,0.3,55.9c0-0.2,0-0.7,0-1.5c-0.2-6.1-0.7-24.5,0.7-33.1c0.2-1,1.1-1.7,2.1-1.7
		c6.3,0.4,7.7,4.2,8,6.4l0,0.3c0,0.3,0.1,0.5,0.1,0.8l3.4,21c3.7,0.3,6.7,3.7,7.9,5c0.7,0.8,1.5,1.8,2.4,3c2.2,3,9.5,7.9,14.9,11.5
		c5.6,3.5,8.2,7.6,7.9,12.3c-0.1,0.9-0.1,1.8-0.1,2.6v18.3c0,1.1-0.9,2-1.9,2L24.8,103.3C24.8,103.3,24.8,103.3,24.8,103.3z
		 M16.3,74.7c8.6,5,12.3,13.2,10.9,24.6L43.6,99V82.6c0-0.9,0-1.9,0.1-2.9c0.2-3.1-1.8-6-6.1-8.7c-7.3-4.9-13.5-9.3-15.9-12.5
		c-0.8-1.1-1.5-1.9-2.1-2.7c-3.7-4.1-5.5-3.9-6.3-3.6c-0.8,0.9-1.2,2.1,0.3,4.6c2.8,4.4,6.4,8.1,10.7,11c1.1,0.8,2.1,1.5,2.9,2.4
		c1.7,1.7,3.1,3.8,4.1,6c0.4,1,0,2.2-1,2.6c-1,0.5-2.2,0-2.6-1c-0.8-1.8-1.9-3.5-3.3-4.9c-0.6-0.6-1.4-1.2-2.3-1.8
		C17.3,68,13.4,63.9,10.2,59c-3-4.8-1.4-7.9,0.4-9.7c0,0,0,0,0.1-0.1L7.3,27.8c0-0.3-0.1-0.6-0.1-0.9l0-0.3
		c-0.2-1.1-0.6-2.2-2.5-2.7C3.9,29.8,3.8,40,4.2,54.3c0,0.8,0,1.3,0,1.6C4.3,62.9,8.2,69.1,16.3,74.7z"/>
</g>
<g>
	<path class="st0c" d="M40.2,52.7c-0.7,0-1.3-0.2-1.9-0.6c-1-0.8-1.5-2-1.3-3.3l2.8-14.3l-10.7-9.9c-0.9-0.9-1.3-2.2-0.9-3.4
		c0.4-1.2,1.4-2.1,2.7-2.2l14.5-1.8l6.2-13.2c0.5-1.2,1.7-1.9,3-1.9c0,0,0,0,0,0c1.3,0,2.4,0.7,3,1.9c0,0,0,0,0,0l6.2,13.2l14.5,1.8
		c1.3,0.2,2.3,1,2.7,2.2c0.4,1.2,0.1,2.5-0.9,3.4l-10.7,9.9l2.8,14.3c0.2,1.3-0.2,2.5-1.3,3.3c-1,0.8-2.4,0.8-3.5,0.2l-12.8-7.1
		l-12.8,7.1C41.3,52.6,40.7,52.7,40.2,52.7z M32.9,22.7l9.9,9.2c0.8,0.8,1.2,1.9,1,3l-2.6,13.2L53,41.6c1-0.6,2.2-0.6,3.2,0
		l11.8,6.6l-2.6-13.2c-0.2-1.1,0.2-2.2,1-3l9.9-9.2L62.8,21c-1.1-0.1-2.1-0.8-2.6-1.9L54.5,6.9l-5.7,12.2c-0.5,1-1.4,1.7-2.6,1.9
		L32.9,22.7z M69,34.8L69,34.8C69,34.8,69,34.8,69,34.8z M63.8,17.5L63.8,17.5L63.8,17.5z M53.9,5.6C53.9,5.6,53.9,5.6,53.9,5.6
		L53.9,5.6z"/>
</g>
<g>
	<path class="st1c" d="M54.6,67.1c-1.1,0-2-0.9-2-2v-6.4c0-1.1,0.9-2,2-2s2,0.9,2,2v6.4C56.6,66.2,55.7,67.1,54.6,67.1z"/>
</g>
<g>
	<path class="st1c" d="M37.8,9.2c-0.6,0-1.2-0.3-1.6-0.8l-3.8-5.2c-0.6-0.9-0.4-2.1,0.4-2.8C33.8-0.2,35,0,35.7,0.9l3.8,5.2
		C40.1,7,39.9,8.2,39,8.9C38.7,9.1,38.2,9.2,37.8,9.2z"/>
</g>
<g>
	<path class="st1c" d="M71.4,9.1c-0.4,0-0.8-0.1-1.2-0.4c-0.9-0.6-1.1-1.9-0.4-2.8l3.7-5.1c0.6-0.9,1.9-1.1,2.8-0.4
		c0.9,0.6,1.1,1.9,0.4,2.8L73,8.3C72.6,8.8,72,9.1,71.4,9.1z"/>
</g>
<g>
	<path class="st1c" d="M21.4,43c-0.8,0-1.6-0.5-1.9-1.4c-0.3-1,0.2-2.2,1.3-2.5l6.2-2c1-0.3,2.2,0.2,2.5,1.3c0.3,1-0.2,2.2-1.3,2.5
		l-6.2,2C21.8,42.9,21.6,43,21.4,43z"/>
</g>
<g>
	<path class="st1c" d="M88,43c-0.2,0-0.4,0-0.6-0.1l-6.2-2c-1-0.3-1.6-1.5-1.3-2.5c0.3-1,1.5-1.6,2.5-1.3l6.2,2
		c1,0.3,1.6,1.5,1.3,2.5C89.6,42.4,88.8,43,88,43z"/>
</g>
</svg>
