<svg width="16" height="15" viewBox="0 0 16 15" fill="none" xmlns="http://www.w3.org/2000/svg">
<path d="M2.94898 14.3979L3.39619 14.1743L3.39619 14.1743L2.94898 14.3979ZM13.051 14.3979L13.4982 14.6216L13.4982 14.6216L13.051 14.3979ZM1.2032 6H14.7968V5H1.2032V6ZM14.5 5.7032V6.14196H15.5V5.7032H14.5ZM12.8859 14H3.11409V15H12.8859V14ZM1.5 6.14196V5.7032H0.5V6.14196H1.5ZM3.39619 14.1743C2.1492 11.6804 1.5 8.93031 1.5 6.14196H0.5C0.5 9.08555 1.18535 11.9887 2.50176 14.6216L3.39619 14.1743ZM3.11409 14C3.23356 14 3.34277 14.0675 3.39619 14.1743L2.50176 14.6216C2.61773 14.8535 2.85478 15 3.11409 15V14ZM12.6038 14.1743C12.6572 14.0675 12.7664 14 12.8859 14V15C13.1452 15 13.3823 14.8535 13.4982 14.6216L12.6038 14.1743ZM14.5 6.14196C14.5 8.93031 13.8508 11.6804 12.6038 14.1743L13.4982 14.6216C14.8147 11.9887 15.5 9.08555 15.5 6.14196H14.5ZM14.7968 6C14.6329 6 14.5 5.86712 14.5 5.7032H15.5C15.5 5.31483 15.1852 5 14.7968 5V6ZM1.2032 5C0.814831 5 0.5 5.31483 0.5 5.7032H1.5C1.5 5.86712 1.36712 6 1.2032 6V5ZM4.42875 5.75725L7.42875 0.757248L6.57125 0.242752L3.57125 5.24275L4.42875 5.75725ZM8.57125 0.757248L11.5713 5.75725L12.4287 5.24275L9.42875 0.242752L8.57125 0.757248Z" fill="white"/>
</svg>
