<svg width="20" height="21" viewBox="0 0 20 21" fill="none" xmlns="http://www.w3.org/2000/svg">
<g clip-path="url(#clip0)">
<path d="M19.3941 16.2915L17.2399 14.8552L15.3248 13.5788C14.9552 13.3329 14.4585 13.4135 14.1857 13.7637L13.0007 15.2871C12.7461 15.6177 12.2882 15.7127 11.9232 15.5106C11.1191 15.0633 10.1683 14.6422 8.07031 12.5415C5.97235 10.4408 5.54853 9.4927 5.10125 8.68863C4.89915 8.3236 4.99415 7.86569 5.32472 7.61118L6.84811 6.42618C7.1983 6.15337 7.27895 5.65668 7.03306 5.28706L5.79579 3.43097L4.32029 1.2177C4.06916 0.840983 3.56643 0.727883 3.17817 0.960725L1.47652 1.98158C1.01664 2.25253 0.678593 2.69005 0.532399 3.20344C0.0670573 4.90005 -0.0267622 8.64271 5.97132 14.6408C11.9694 20.6389 15.7117 20.5448 17.4083 20.0794C17.9217 19.9332 18.3592 19.5952 18.6302 19.1353L19.651 17.4336C19.8839 17.0453 19.7708 16.5427 19.3941 16.2915Z" fill="white"/>
<path d="M11.3956 3.85463C14.5397 3.85812 17.0876 6.40605 17.0911 9.55019C17.0911 9.73521 17.2411 9.88524 17.4262 9.88524C17.6112 9.88524 17.7612 9.73525 17.7612 9.55019C17.7573 6.03617 14.9096 3.18844 11.3956 3.18457C11.2106 3.18457 11.0605 3.33456 11.0605 3.51962C11.0605 3.7046 11.2105 3.85463 11.3956 3.85463Z" fill="white"/>
<path d="M11.3956 5.86492C13.43 5.86731 15.0785 7.51591 15.0809 9.55027C15.0809 9.73529 15.2309 9.88532 15.416 9.88532C15.601 9.88532 15.751 9.73533 15.751 9.55027C15.7483 7.14599 13.7999 5.19759 11.3956 5.19482C11.2106 5.19482 11.0605 5.34481 11.0605 5.52987C11.0605 5.71493 11.2105 5.86492 11.3956 5.86492Z" fill="white"/>
<path d="M11.3956 7.87514C12.3203 7.87624 13.0696 8.62558 13.0707 9.5503C13.0707 9.73533 13.2207 9.88535 13.4058 9.88535C13.5908 9.88535 13.7408 9.73536 13.7408 9.5503C13.7393 8.25569 12.6902 7.20656 11.3956 7.20508C11.2106 7.20508 11.0605 7.35507 11.0605 7.54013C11.0605 7.72515 11.2105 7.87514 11.3956 7.87514Z" fill="white"/>
</g>
<defs>
<clipPath id="clip0">
<rect width="19.4321" height="19.4321" fill="white" transform="translate(0.339355 0.839844)"/>
</clipPath>
</defs>
</svg>
