<svg width="20" height="20" viewBox="0 0 20 20" fill="none" xmlns="http://www.w3.org/2000/svg">
<g clip-path="url(#clip0)">
<path d="M19.7873 8.12735L10.307 1.18606C10.1242 1.05224 9.8758 1.05224 9.69306 1.18606L0.212687 8.12735C-0.0188751 8.29692 -0.0691875 8.62208 0.100383 8.85364C0.269953 9.08521 0.595147 9.13544 0.826671 8.96595L9.99998 2.24938L19.1733 8.96591C19.2658 9.03368 19.3733 9.0663 19.4798 9.0663C19.6398 9.0663 19.7977 8.99267 19.8995 8.8536C20.0691 8.62208 20.0188 8.29692 19.7873 8.12735Z" fill="white"/>
<path d="M17.2752 9.08374C16.9883 9.08374 16.7556 9.3164 16.7556 9.60339V17.8748H12.5985V13.3598C12.5985 11.9269 11.4328 10.7613 10.0001 10.7613C8.56732 10.7613 7.40162 11.927 7.40162 13.3598V17.8749H3.24447V9.60343C3.24447 9.31644 3.01177 9.08378 2.72482 9.08378C2.43786 9.08378 2.20517 9.31644 2.20517 9.60343V18.3946C2.20517 18.6816 2.43786 18.9142 2.72482 18.9142H7.92126C8.19454 18.9142 8.41818 18.7031 8.43888 18.435C8.44013 18.4229 8.44091 18.4096 8.44091 18.3946V13.3598C8.44091 12.5001 9.14033 11.8007 10.0001 11.8007C10.8598 11.8007 11.5592 12.5001 11.5592 13.3598V18.3946C11.5592 18.4095 11.56 18.4226 11.5612 18.4346C11.5817 18.7028 11.8054 18.9142 12.0788 18.9142H17.2753C17.5623 18.9142 17.7949 18.6816 17.7949 18.3946V9.60343C17.7949 9.3164 17.5622 9.08374 17.2752 9.08374Z" fill="white"/>
</g>
<defs>
<clipPath id="clip0">
<rect width="20" height="20" fill="white"/>
</clipPath>
</defs>
</svg>
