<?xml version="1.0" encoding="utf-8"?>
<!-- Generator: Adobe Illustrator 25.0.1, SVG Export Plug-In . SVG Version: 6.00 Build 0)  -->
<svg version="1.1" id="Layer_1" xmlns="http://www.w3.org/2000/svg" xmlns:xlink="http://www.w3.org/1999/xlink" x="0px" y="0px"
	 viewBox="0 0 100 105" style="enable-background:new 0 0 100 105;" xml:space="preserve">
<style type="text/css">
	.st0{fill:#594A4E;}
	.st1{fill:#F0BF0B;}
</style>
<g>
	<path class="st0" d="M58.6,87.9H41.6c-3.4,0-5.7-2.7-5.7-6.5v-2.9c0-5-2-9.8-3.9-13.9c-0.4-0.9-0.9-1.8-1.6-2.8
		c-2.1-3.3-3.3-7.1-3.6-11c-0.4-6.7,2.1-13.2,6.8-18c4.8-4.7,11.3-7.2,18-6.8c12.2,0.8,21.8,11,21.8,23.3c0,4.6-1.3,9-3.8,12.8
		c-1,1.5-1.7,2.9-2.3,4.4c-1.7,4.3-3.1,8.1-3.1,12.1v3.1C64.2,85.3,62,87.9,58.6,87.9z M50.1,29.1c-5.3,0-10.4,2.1-14.2,5.9
		c-4.1,4.1-6.3,9.7-5.9,15.5c0.2,3.4,1.3,6.7,3.1,9.5c0.7,1.1,1.3,2.1,1.7,3.2c2,4.2,4.2,9.7,4.2,15.3v2.9c0,0.8,0.2,3.3,2.5,3.3
		h17.1c2.1,0,2.4-2.2,2.4-3.1v-3.1c0-4.5,1.6-8.8,3.3-13.2c0.7-1.7,1.5-3.4,2.6-5c2.1-3.3,3.3-7.1,3.3-11c0-10.6-8.3-19.4-18.8-20.1
		C51,29.1,50.5,29.1,50.1,29.1z"/>
</g>
<g>
	<path class="st1" d="M34.2,51.1c-0.9,0-1.6-0.7-1.6-1.6c0-9.6,7.8-17.5,17.5-17.5c0.9,0,1.6,0.7,1.6,1.6s-0.7,1.6-1.6,1.6
		c-7.9,0-14.2,6.4-14.2,14.2C35.8,50.4,35.1,51.1,34.2,51.1z"/>
</g>
<g>
	<path class="st0" d="M60.4,91.7H39.5c-0.9,0-1.6-0.7-1.6-1.6s0.7-1.6,1.6-1.6h20.9c0.9,0,1.6,0.7,1.6,1.6S61.3,91.7,60.4,91.7z"/>
</g>
<g>
	<path class="st0" d="M60.4,95.6H39.5c-0.9,0-1.6-0.7-1.6-1.6s0.7-1.6,1.6-1.6h20.9c0.9,0,1.6,0.7,1.6,1.6S61.3,95.6,60.4,95.6z"/>
</g>
<g>
	<path class="st0" d="M60.4,99.4H39.5c-0.9,0-1.6-0.7-1.6-1.6s0.7-1.6,1.6-1.6h20.9c0.9,0,1.6,0.7,1.6,1.6S61.3,99.4,60.4,99.4z"/>
</g>
<g>
	<path class="st0" d="M57.7,105H42.3c-0.3,0-0.5-0.2-0.6-0.4l-1.1-3.1c-0.1-0.3,0.2-0.7,0.6-0.7h17.5c0.4,0,0.7,0.3,0.6,0.7
		l-1.1,3.1C58.2,104.8,57.9,105,57.7,105z"/>
</g>
<g>
	<path class="st1" d="M50.1,17.6c-0.9,0-1.6-0.7-1.6-1.6l0-14c0-0.9,0.7-1.6,1.6-1.6c0,0,0,0,0,0c0.9,0,1.6,0.7,1.6,1.6l0,14
		C51.7,16.9,51,17.6,50.1,17.6C50.1,17.6,50.1,17.6,50.1,17.6z"/>
</g>
<g>
	<path class="st1" d="M74.2,27.6c-0.4,0-0.8-0.2-1.1-0.5c-0.6-0.6-0.6-1.6,0-2.3l9.9-10c0.6-0.6,1.6-0.6,2.3,0
		c0.6,0.6,0.6,1.6,0,2.3l-9.9,10C75,27.5,74.6,27.6,74.2,27.6z"/>
</g>
<g>
	<path class="st1" d="M16.1,85.7c-0.4,0-0.8-0.2-1.1-0.5c-0.6-0.6-0.6-1.6,0-2.3l9.9-10c0.6-0.6,1.6-0.6,2.3,0s0.6,1.6,0,2.3
		l-9.9,10C16.9,85.5,16.5,85.7,16.1,85.7z"/>
</g>
<g>
	<path class="st1" d="M26,27.6c-0.4,0-0.8-0.2-1.1-0.5l-10-9.9c-0.6-0.6-0.6-1.6,0-2.3c0.6-0.6,1.6-0.6,2.3,0l10,9.9
		c0.6,0.6,0.6,1.6,0,2.3C26.8,27.4,26.4,27.6,26,27.6z"/>
</g>
<g>
	<path class="st1" d="M84.1,85.7c-0.4,0-0.8-0.2-1.1-0.5l-10-9.9c-0.6-0.6-0.6-1.6,0-2.3c0.6-0.6,1.6-0.6,2.3,0l10,9.9
		c0.6,0.6,0.6,1.6,0,2.3C84.9,85.5,84.5,85.7,84.1,85.7z"/>
</g>
<g>
	<path class="st1" d="M2,51.7c-0.9,0-1.6-0.7-1.6-1.6c0-0.9,0.7-1.6,1.6-1.6l14,0c0,0,0,0,0,0c0.9,0,1.6,0.7,1.6,1.6
		c0,0.9-0.7,1.6-1.6,1.6L2,51.7C2,51.7,2,51.7,2,51.7z"/>
</g>
<g>
	<path class="st1" d="M84.1,51.7c-0.9,0-1.6-0.7-1.6-1.6c0-0.9,0.7-1.6,1.6-1.6l14,0c0,0,0,0,0,0c0.9,0,1.6,0.7,1.6,1.6
		c0,0.9-0.7,1.6-1.6,1.6L84.1,51.7C84.1,51.7,84.1,51.7,84.1,51.7z"/>
</g>
</svg>
