<svg width="40" height="40" viewBox="0 0 40 40" fill="none" xmlns="http://www.w3.org/2000/svg">
<path d="M17.6869 15.0204L18.0405 14.6669L17.3334 13.9598L16.9798 14.3133L17.6869 15.0204ZM12 20.0002L11.6465 19.6467L11.2929 20.0002L11.6465 20.3538L12 20.0002ZM16.9798 25.6871L17.3334 26.0407L18.0405 25.3336L17.6869 24.98L16.9798 25.6871ZM20 1.33356L20 0.833557L20 1.33356ZM38.6667 20.0002L39.1667 20.0002L38.6667 20.0002ZM1.33337 20.0002L1.83337 20.0002L1.33337 20.0002ZM20 38.6669L20 38.1669L20 38.6669ZM16.9798 14.3133L11.6465 19.6467L12.3536 20.3538L17.6869 15.0204L16.9798 14.3133ZM11.6465 20.3538L16.9798 25.6871L17.6869 24.98L12.3536 19.6467L11.6465 20.3538ZM12 20.5002L29.3334 20.5002L29.3334 19.5002L12 19.5002L12 20.5002ZM20 1.83356C30.0332 1.83356 38.1667 9.96705 38.1667 20.0002L39.1667 20.0002C39.1667 9.41477 30.5855 0.833558 20 0.833557L20 1.83356ZM1.83337 20.0002C1.83337 9.96705 9.96687 1.83356 20 1.83356L20 0.833557C9.41458 0.833556 0.833375 9.41476 0.833374 20.0002L1.83337 20.0002ZM20 38.1669C9.96687 38.1669 1.83337 30.0334 1.83337 20.0002L0.833374 20.0002C0.833373 30.5857 9.41458 39.1669 20 39.1669L20 38.1669ZM20 39.1669C30.5855 39.1669 39.1667 30.5857 39.1667 20.0002L38.1667 20.0002C38.1667 30.0334 30.0332 38.1669 20 38.1669L20 39.1669Z" fill="white"/>
</svg>
