<svg width="17" height="17" viewBox="0 0 17 17" fill="none" xmlns="http://www.w3.org/2000/svg">
<path d="M16.6694 13.5177L14.7848 12.2612L13.1094 11.1445C12.7861 10.9294 12.3516 10.9999 12.1129 11.3063L11.0762 12.639C10.8535 12.9282 10.4529 13.0113 10.1336 12.8345C9.43014 12.4432 8.59831 12.0748 6.76293 10.2371C4.92754 8.39933 4.55677 7.56986 4.16547 6.86642C3.98867 6.54708 4.07177 6.14649 4.36097 5.92383L5.6937 4.88714C6.00006 4.64848 6.07062 4.21396 5.85549 3.8906L4.77308 2.26682L3.48226 0.330567C3.26256 0.00099677 2.82275 -0.0979474 2.48309 0.105751L0.994407 0.998838C0.592089 1.23587 0.296352 1.61863 0.168455 2.06777C-0.238645 3.55203 -0.320722 6.82625 4.92665 12.0736C10.174 17.321 13.4479 17.2386 14.9322 16.8315C15.3813 16.7036 15.7641 16.4079 16.0011 16.0055L16.8942 14.5169C17.098 14.1772 16.999 13.7374 16.6694 13.5177Z" fill="#EE4848"/>
</svg>
