<svg width="88" height="62" viewBox="0 0 88 62" fill="none" xmlns="http://www.w3.org/2000/svg">
<path d="M15.6345 30.5576L23.8985 29.229C27.7699 29.229 31.1946 30.5576 34.1726 33.2147C37.2995 35.7242 38.8629 39.4885 38.8629 44.5076C38.8629 49.379 37.225 53.5123 33.9492 56.9076C30.6734 60.3028 26.0575 62.0004 20.1015 62.0004C14.2944 62.0004 9.45516 59.7861 5.58376 55.3576C1.86125 50.929 0 45.2457 0 38.3076C0 31.2219 2.6802 24.2099 8.04061 17.2718C13.5499 10.3338 21.3672 4.57661 31.4924 0.000427246L33.0558 3.7647C19.0592 11.4409 12.0609 19.1909 12.0609 27.0147C12.0609 29.3766 13.2521 30.5576 15.6345 30.5576ZM64.7716 30.5576L73.0355 29.229C76.9069 29.229 80.3316 30.5576 83.3096 33.2147C86.4365 35.7242 88 39.4885 88 44.5076C88 49.379 86.3621 53.5123 83.0863 56.9076C79.8105 60.3028 75.1946 62.0004 69.2386 62.0004C63.4315 62.0004 58.5922 59.7861 54.7208 55.3576C50.9983 50.929 49.1371 45.2457 49.1371 38.3076C49.1371 31.2219 51.8173 24.2099 57.1777 17.2718C62.687 10.3338 70.5042 4.57661 80.6294 0.000427246L82.1929 3.7647C68.1963 11.4409 61.198 19.1909 61.198 27.0147C61.198 29.3766 62.3892 30.5576 64.7716 30.5576Z" fill="white"/>
</svg>
