<?xml version="1.0" encoding="utf-8"?>
<!-- Generator: Adobe Illustrator 25.0.1, SVG Export Plug-In . SVG Version: 6.00 Build 0)  -->
<svg version="1.1" id="Layer_1" xmlns="http://www.w3.org/2000/svg" xmlns:xlink="http://www.w3.org/1999/xlink" x="0px" y="0px"
	 viewBox="0 0 104 104" style="enable-background:new 0 0 104 104;" xml:space="preserve">
<style type="text/css">
	.st0a{fill:#F0BF0B;}
	.st1a{fill:#594A4E;}
</style>
<g>
	<path class="st0a" d="M5.9,87c-0.4,0-0.7-0.1-1-0.4c-0.6-0.6-0.6-1.5,0-2l13.2-13.2c0.6-0.6,1.5-0.6,2,0c0.6,0.6,0.6,1.5,0,2
		L6.9,86.6C6.6,86.9,6.2,87,5.9,87z"/>
</g>
<g>
	<path class="st0a" d="M18.2,99.8c-0.4,0-0.7-0.1-1-0.4c-0.6-0.6-0.6-1.5,0-2l13.7-13.7c0.6-0.6,1.5-0.6,2,0c0.6,0.6,0.6,1.5,0,2
		L19.2,99.4C18.9,99.7,18.6,99.8,18.2,99.8z"/>
</g>
<g>
	<path class="st0a" d="M2,103.4c-0.4,0-0.7-0.1-1-0.4c-0.6-0.6-0.6-1.5,0-2l13.7-13.7c0.6-0.6,1.5-0.6,2,0c0.6,0.6,0.6,1.5,0,2L3,103
		C2.7,103.3,2.4,103.4,2,103.4z"/>
</g>
<g>
	<path class="st1a" d="M37.7,78.3c-0.4,0-0.8-0.2-1.1-0.5L26,67.2c-0.4-0.4-0.6-1-0.4-1.5c2.9-11,14.2-27.4,29.4-42.6l0,0
		C77.2,1,100.9,0.4,101.9,0.4c0.4,0,0.8,0.2,1.1,0.5c0.3,0.3,0.5,0.7,0.5,1.1c0,1-0.6,24.7-22.7,46.8C65.5,64.1,49.2,75.4,38.1,78.3
		C38,78.3,37.8,78.3,37.7,78.3z M29,65.6l9.2,9.3c10.4-3.1,26.1-14.1,40.4-28.4c17.8-17.8,21-37.1,21.6-42.9
		c-5.8,0.6-25.1,3.8-42.9,21.6C43.1,39.6,32.1,55.2,29,65.6z"/>
</g>
<g>
	<path class="st0a" d="M71.1,42.5c-5.3,0-9.7-4.4-9.7-9.7s4.4-9.7,9.7-9.7s9.7,4.4,9.7,9.7S76.5,42.5,71.1,42.5z M71.1,26.3
		c-3.6,0-6.5,2.9-6.5,6.5c0,3.6,2.9,6.5,6.5,6.5c3.6,0,6.5-2.9,6.5-6.5C77.6,29.2,74.7,26.3,71.1,26.3z"/>
</g>
<g>
	<path class="st1a" d="M15,68.7c-0.5,0-0.9-0.2-1.2-0.6c-0.3-0.4-0.4-1-0.3-1.5L16.6,56c0.1-0.5,0.5-0.9,1-1.1l16.6-5.7l1,3
		l-15.9,5.5l-2.2,7.6l10.3-0.9l0.3,3.2l-12.6,1.1C15.1,68.7,15.1,68.7,15,68.7z"/>
</g>
<g>
	<path class="st1a" d="M36.8,90.5c-0.4,0-0.7-0.1-1-0.4c-0.4-0.3-0.6-0.9-0.6-1.4l1.1-12.6l3.2,0.3l-0.9,10.3l7.6-2.2l5.5-15.9l3,1
		l-5.7,16.6c-0.2,0.5-0.6,0.9-1.1,1l-10.6,3.2C37.1,90.4,37,90.5,36.8,90.5z"/>
</g>
<g>
	<path class="st1a" d="M25.9,79.6c-0.4,0-0.8-0.2-1.1-0.5c-0.6-0.6-0.6-1.6,0-2.3l16.9-16.9c0.6-0.6,1.6-0.6,2.3,0
		c0.6,0.6,0.6,1.6,0,2.3L27,79.1C26.7,79.4,26.3,79.6,25.9,79.6z"/>
</g>
</svg>
