<svg width="39" height="40" viewBox="0 0 39 40" fill="none" xmlns="http://www.w3.org/2000/svg">
<path d="M21.9797 24.9805L21.6262 25.3341L22.3333 26.0412L22.6868 25.6876L21.9797 24.9805ZM27.6666 20.0008L28.0202 20.3543L28.3737 20.0008L28.0202 19.6472L27.6666 20.0008ZM22.6868 14.3139L22.3333 13.9603L21.6262 14.6674L21.9797 15.021L22.6868 14.3139ZM19.6666 38.6674L19.6666 39.1674L19.6666 38.6674ZM0.999946 20.0008L0.499946 20.0008L0.999946 20.0008ZM38.3333 20.0008L37.8333 20.0008L38.3333 20.0008ZM19.6666 1.3341L19.6666 1.8341L19.6666 1.3341ZM22.6868 25.6876L28.0202 20.3543L27.3131 19.6472L21.9797 24.9805L22.6868 25.6876ZM28.0202 19.6472L22.6868 14.3139L21.9797 15.021L27.3131 20.3543L28.0202 19.6472ZM27.6666 19.5008L10.3333 19.5008L10.3333 20.5008L27.6666 20.5008L27.6666 19.5008ZM19.6666 38.1674C9.63344 38.1674 1.49995 30.0339 1.49995 20.0008L0.499946 20.0008C0.499948 30.5862 9.08116 39.1674 19.6666 39.1674L19.6666 38.1674ZM37.8333 20.0008C37.8333 30.0339 29.6998 38.1674 19.6666 38.1674L19.6666 39.1674C30.2521 39.1674 38.8333 30.5862 38.8333 20.0008L37.8333 20.0008ZM19.6666 1.8341C29.6998 1.83409 37.8333 9.96759 37.8333 20.0008L38.8333 20.0008C38.8333 9.4153 30.2521 0.834093 19.6666 0.834096L19.6666 1.8341ZM19.6666 0.834096C9.08115 0.834099 0.499943 9.41531 0.499946 20.0008L1.49995 20.0008C1.49994 9.96759 9.63344 1.8341 19.6666 1.8341L19.6666 0.834096Z" fill="white"/>
</svg>
