<?xml version="1.0" encoding="utf-8"?>
<!-- Generator: Adobe Illustrator 25.0.1, SVG Export Plug-In . SVG Version: 6.00 Build 0)  -->
<svg version="1.1" id="Layer_1" xmlns="http://www.w3.org/2000/svg" xmlns:xlink="http://www.w3.org/1999/xlink" x="0px" y="0px"
	 viewBox="0 0 20 18" style="enable-background:new 0 0 20 18;" xml:space="preserve">
<style type="text/css">
	.st0{fill:#FFFFFF;}
</style>
<g>
	<path class="st0" d="M15.2,7.7c-0.5,0-0.8,0.3-0.8,0.9c0,0.2,0.1,0.4,0.2,0.6c0.2,0.3,0.7,0.4,1,0.1c0,0,0.1-0.1,0.1-0.1
		c0.2-0.3,0.2-0.9,0-1.2C15.6,7.8,15.4,7.7,15.2,7.7z"/>
	<path class="st0" d="M9.6,7.7C9.2,7.7,8.8,8,8.8,8.7C8.8,8.8,8.9,9,9,9.2c0.2,0.3,0.7,0.4,1,0.1c0.1,0,0.1-0.1,0.1-0.1
		c0.2-0.3,0.2-0.9,0-1.2C10,7.8,9.8,7.7,9.6,7.7z"/>
	<path class="st0" d="M17.3,2.5c-1.8-1.6-4.3-2.5-7.2-2.5C7.7,0.1,5.6,0.7,3.8,2C2.2,3.1,1.1,4.7,0.6,6.5c-0.4,1.5-0.3,3,0.2,4.3
		c0.5,1.4,1.5,2.5,2.9,3.4c-0.1,0.7-0.4,1.4-0.9,1.9l-1,1h1.4c1.4,0,2.7-0.6,3.7-1.6c1,0.3,2.2,0.4,3.3,0.4c3,0,5.5-0.9,7.2-2.5
		c0.8-0.7,1.4-1.6,1.8-2.6c0.4-0.9,0.6-1.9,0.6-3C19.8,5.9,18.9,4,17.3,2.5z M7.3,10.3c-0.7,0-1.4,0-2.1,0c-0.2,0-0.4,0-0.6,0
		c-0.2,0-0.5-0.1-0.6-0.3s0-0.5,0.1-0.7c0.7-0.8,1.3-1.7,2-2.5c0-0.1,0.1-0.1,0.1-0.1c0-0.1-0.1,0-0.2,0c-0.5,0-0.9,0-1.4,0
		c-0.1,0-0.2,0-0.3,0C4.1,6.5,4,6.3,4,6c0-0.2,0.2-0.3,0.3-0.3c0.1,0,0.2,0,0.3,0c0.8,0,1.5,0,2.3,0c0.1,0,0.3,0,0.4,0
		c0.3,0.1,0.4,0.4,0.3,0.7C7.6,6.6,7.4,6.8,7.2,7C6.7,7.7,6.1,8.4,5.5,9.1c0,0.1-0.1,0.1-0.2,0.2c0.6,0,1.3,0,1.9,0
		c0.3,0,0.5,0.1,0.6,0.4C7.8,10.1,7.6,10.3,7.3,10.3z M11.4,9.9c0,0.2-0.1,0.4-0.4,0.5c-0.2,0.1-0.5,0-0.6-0.2
		c-0.1-0.1-0.1-0.1-0.2,0c-0.4,0.3-0.8,0.4-1.3,0.2c-0.8-0.2-1.1-0.8-1.2-1.6C7.7,8,7.9,7.3,8.6,6.9c0.6-0.3,1.2-0.3,1.7,0.2
		c0.1-0.1,0.2-0.3,0.4-0.3c0.3-0.1,0.7,0.2,0.7,0.5C11.4,8.1,11.4,9,11.4,9.9z M12.9,7.8c0,0.7,0,1.3,0,2c0,0.3-0.2,0.6-0.5,0.6
		c-0.1,0-0.1,0-0.2,0c-0.2-0.1-0.4-0.3-0.4-0.6V6.4c0-0.2,0-0.4,0-0.6c0-0.3,0.2-0.5,0.5-0.5c0.3,0,0.5,0.2,0.5,0.6
		C13,6.5,12.9,7.2,12.9,7.8z M15.3,10.5c-1.1,0.1-2-0.7-2-1.8c0-1.1,0.7-1.9,1.7-2c1.1,0,1.9,0.7,1.9,1.8
		C17,9.6,16.3,10.4,15.3,10.5z"/>
</g>
</svg>
