<svg width="302" height="120" viewBox="0 0 302 120" fill="none" xmlns="http://www.w3.org/2000/svg">
<mask id="mask0" mask-type="alpha" maskUnits="userSpaceOnUse" x="0" y="0" width="302" height="120">
<rect width="302" height="120" fill="#F1C637"/>
</mask>
<g mask="url(#mask0)">
<path d="M10.18 -28.0801L0 -20.1401V-17.6701L10.18 -25.6201L41.61 -1.34008L0 30.1099V32.5399L44.81 -1.33008L10.18 -28.0801Z" fill="#F1C637"/>
<path d="M26.64 -13.8901L0 6.30992V8.74992L27.81 -12.3501L26.64 -13.8901Z" fill="#F1C637"/>
<path d="M86.42 32.5399L41.61 -1.33008L76.24 -28.0801L86.42 -20.1401L96.6 -28.0801L131.23 -1.33008L86.42 32.5399ZM44.81 -1.34008L86.42 30.1099L128.03 -1.34008L96.61 -25.6101L86.42 -17.6601L76.23 -25.6101L44.81 -1.34008Z" fill="#F1C637"/>
<path d="M86.42 8.74992L58.6 -12.3501L59.78 -13.8901L86.42 6.30992L113.06 -13.8901L114.23 -12.3501L86.42 8.74992Z" fill="#F1C637"/>
<path d="M172.84 32.5399L128.03 -1.33008L162.66 -28.0801L172.84 -20.1401L183.02 -28.0801L217.65 -1.33008L172.84 32.5399ZM131.22 -1.34008L172.83 30.1099L214.44 -1.34008L183.02 -25.6101L172.83 -17.6601L162.64 -25.6101L131.22 -1.34008Z" fill="#F1C637"/>
<path d="M172.84 8.74992L145.02 -12.3501L146.2 -13.8901L172.84 6.30992L199.48 -13.8901L200.65 -12.3501L172.84 8.74992Z" fill="#F1C637"/>
<path d="M259.25 32.5399L214.44 -1.33008L249.07 -28.0801L259.25 -20.1401L269.43 -28.0801L304.06 -1.33008L259.25 32.5399ZM217.64 -1.34008L259.25 30.1099L300.86 -1.34008L269.44 -25.6201L259.25 -17.6701L249.06 -25.6201L217.64 -1.34008Z" fill="#F1C637"/>
<path d="M259.25 8.74992L231.44 -12.3501L232.61 -13.8901L259.25 6.30992L285.89 -13.8901L287.07 -12.3501L259.25 8.74992Z" fill="#F1C637"/>
<path d="M304.06 -1.34008L335.49 -25.6201L345.67 -17.6701V-20.1401L335.49 -28.0801L300.86 -1.33008L345.67 32.5399V30.1099L304.06 -1.34008Z" fill="#F1C637"/>
<path d="M319.03 -13.8901L317.86 -12.3501L345.67 8.74992V6.30992L319.03 -13.8901Z" fill="#F1C637"/>
<path d="M356.18 -28.5601L346 -20.6201V-18.1501L356.18 -26.1001L387.61 -1.82006L346 29.6299V32.0599L390.81 -1.81006L356.18 -28.5601Z" fill="#F1C637"/>
<path d="M372.64 -14.3701L346 5.82994V8.26994L373.81 -12.8301L372.64 -14.3701Z" fill="#F1C637"/>
<path d="M432.42 32.0599L387.61 -1.81006L422.24 -28.5601L432.42 -20.6201L442.6 -28.5601L477.23 -1.81006L432.42 32.0599ZM390.81 -1.82006L432.42 29.6299L474.03 -1.82006L442.61 -26.0901L432.42 -18.1401L422.23 -26.0901L390.81 -1.82006Z" fill="#F1C637"/>
<path d="M432.42 8.26994L404.6 -12.8301L405.78 -14.3701L432.42 5.82994L459.06 -14.3701L460.23 -12.8301L432.42 8.26994Z" fill="#F1C637"/>
<path d="M518.84 32.0599L474.03 -1.81006L508.66 -28.5601L518.84 -20.6201L529.02 -28.5601L563.65 -1.81006L518.84 32.0599ZM477.22 -1.82006L518.83 29.6299L560.44 -1.82006L529.02 -26.0901L518.83 -18.1401L508.64 -26.0901L477.22 -1.82006Z" fill="#F1C637"/>
<path d="M518.84 8.26994L491.02 -12.8301L492.2 -14.3701L518.84 5.82994L545.48 -14.3701L546.65 -12.8301L518.84 8.26994Z" fill="#F1C637"/>
<path d="M605.25 32.0599L560.44 -1.81006L595.07 -28.5601L605.25 -20.6201L615.43 -28.5601L650.06 -1.81006L605.25 32.0599ZM563.64 -1.82006L605.25 29.6299L646.86 -1.82006L615.44 -26.1001L605.25 -18.1501L595.06 -26.1001L563.64 -1.82006Z" fill="#F1C637"/>
<path d="M605.25 8.26994L577.44 -12.8301L578.61 -14.3701L605.25 5.82994L631.89 -14.3701L633.07 -12.8301L605.25 8.26994Z" fill="#F1C637"/>
<path d="M650.06 -1.82006L681.49 -26.1001L691.67 -18.1501V-20.6201L681.49 -28.5601L646.86 -1.81006L691.67 32.0599V29.6299L650.06 -1.82006Z" fill="#F1C637"/>
<path d="M665.03 -14.3701L663.86 -12.8301L691.67 8.26994V5.82994L665.03 -14.3701Z" fill="#F1C637"/>
<path d="M702.18 -29.04L692 -21.1V-18.63L702.18 -26.58L733.61 -2.30004L692 29.15V31.58L736.81 -2.29004L702.18 -29.04Z" fill="#F1C637"/>
<path d="M718.64 -14.85L692 5.34996V7.78996L719.81 -13.31L718.64 -14.85Z" fill="#F1C637"/>
<path d="M778.42 31.58L733.61 -2.29004L768.24 -29.04L778.42 -21.1L788.6 -29.04L823.23 -2.29004L778.42 31.58ZM736.81 -2.30004L778.42 29.15L820.03 -2.30004L788.61 -26.57L778.42 -18.62L768.23 -26.57L736.81 -2.30004Z" fill="#F1C637"/>
<path d="M778.42 7.78996L750.6 -13.31L751.78 -14.85L778.42 5.34996L805.06 -14.85L806.23 -13.31L778.42 7.78996Z" fill="#F1C637"/>
<path d="M864.84 31.58L820.03 -2.29004L854.66 -29.04L864.84 -21.1L875.02 -29.04L909.65 -2.29004L864.84 31.58ZM823.22 -2.30004L864.83 29.15L906.44 -2.30004L875.02 -26.57L864.83 -18.62L854.64 -26.57L823.22 -2.30004Z" fill="#F1C637"/>
<path d="M864.84 7.78996L837.02 -13.31L838.2 -14.85L864.84 5.34996L891.48 -14.85L892.65 -13.31L864.84 7.78996Z" fill="#F1C637"/>
<path d="M951.25 31.58L906.44 -2.29004L941.07 -29.04L951.25 -21.1L961.43 -29.04L996.06 -2.29004L951.25 31.58ZM909.64 -2.30004L951.25 29.15L992.86 -2.30004L961.44 -26.58L951.25 -18.63L941.06 -26.58L909.64 -2.30004Z" fill="#F1C637"/>
<path d="M951.25 7.78996L923.44 -13.31L924.61 -14.85L951.25 5.34996L977.89 -14.85L979.07 -13.31L951.25 7.78996Z" fill="#F1C637"/>
<path d="M996.06 -2.30004L1027.49 -26.58L1037.67 -18.63V-21.1L1027.49 -29.04L992.86 -2.29004L1037.67 31.58V29.15L996.06 -2.30004Z" fill="#F1C637"/>
<path d="M1011.03 -14.85L1009.86 -13.31L1037.67 7.78996V5.34996L1011.03 -14.85Z" fill="#F1C637"/>
<path d="M1048.18 -29.52L1038 -21.58V-19.11L1048.18 -27.06L1079.61 -2.78002L1038 28.67V31.1L1082.81 -2.77002L1048.18 -29.52Z" fill="#F1C637"/>
<path d="M1064.64 -15.33L1038 4.86998V7.30998L1065.81 -13.79L1064.64 -15.33Z" fill="#F1C637"/>
<path d="M1124.42 31.1L1079.61 -2.77002L1114.24 -29.52L1124.42 -21.58L1134.6 -29.52L1169.23 -2.77002L1124.42 31.1ZM1082.81 -2.78002L1124.42 28.67L1166.03 -2.78002L1134.61 -27.05L1124.42 -19.1L1114.23 -27.05L1082.81 -2.78002Z" fill="#F1C637"/>
<path d="M1124.42 7.30998L1096.6 -13.79L1097.78 -15.33L1124.42 4.86998L1151.06 -15.33L1152.23 -13.79L1124.42 7.30998Z" fill="#F1C637"/>
<path d="M1210.84 31.1L1166.03 -2.77002L1200.66 -29.52L1210.84 -21.58L1221.02 -29.52L1255.65 -2.77002L1210.84 31.1ZM1169.22 -2.78002L1210.83 28.67L1252.44 -2.78002L1221.02 -27.05L1210.83 -19.1L1200.64 -27.05L1169.22 -2.78002Z" fill="#F1C637"/>
<path d="M1210.84 7.30998L1183.02 -13.79L1184.2 -15.33L1210.84 4.86998L1237.48 -15.33L1238.65 -13.79L1210.84 7.30998Z" fill="#F1C637"/>
<path d="M1297.25 31.1L1252.44 -2.77002L1287.07 -29.52L1297.25 -21.58L1307.43 -29.52L1342.06 -2.77002L1297.25 31.1ZM1255.64 -2.78002L1297.25 28.67L1338.86 -2.78002L1307.44 -27.06L1297.25 -19.11L1287.06 -27.06L1255.64 -2.78002Z" fill="#F1C637"/>
<path d="M1297.25 7.30998L1269.44 -13.79L1270.61 -15.33L1297.25 4.86998L1323.89 -15.33L1325.07 -13.79L1297.25 7.30998Z" fill="#F1C637"/>
<path d="M1342.06 -2.78002L1373.49 -27.06L1383.67 -19.11V-21.58L1373.49 -29.52L1338.86 -2.77002L1383.67 31.1V28.67L1342.06 -2.78002Z" fill="#F1C637"/>
<path d="M1357.03 -15.33L1355.86 -13.79L1383.67 7.30998V4.86998L1357.03 -15.33Z" fill="#F1C637"/>
<path d="M1394.18 -30L1384 -22.06V-19.59L1394.18 -27.54L1425.61 -3.26L1384 28.19V30.62L1428.81 -3.25L1394.18 -30Z" fill="#F1C637"/>
<path d="M1410.64 -15.81L1384 4.39V6.83L1411.81 -14.27L1410.64 -15.81Z" fill="#F1C637"/>
<path d="M1470.42 30.62L1425.61 -3.25L1460.24 -30L1470.42 -22.06L1480.6 -30L1515.23 -3.25L1470.42 30.62ZM1428.81 -3.26L1470.42 28.19L1512.03 -3.26L1480.61 -27.53L1470.42 -19.58L1460.23 -27.53L1428.81 -3.26Z" fill="#F1C637"/>
<path d="M1470.42 6.83L1442.6 -14.27L1443.78 -15.81L1470.42 4.39L1497.06 -15.81L1498.23 -14.27L1470.42 6.83Z" fill="#F1C637"/>
<path d="M1556.84 30.62L1512.03 -3.25L1546.66 -30L1556.84 -22.06L1567.02 -30L1601.65 -3.25L1556.84 30.62ZM1515.22 -3.26L1556.83 28.19L1598.44 -3.26L1567.02 -27.53L1556.83 -19.58L1546.64 -27.53L1515.22 -3.26Z" fill="#F1C637"/>
<path d="M1556.84 6.83L1529.02 -14.27L1530.2 -15.81L1556.84 4.39L1583.48 -15.81L1584.65 -14.27L1556.84 6.83Z" fill="#F1C637"/>
<path d="M1643.25 30.62L1598.44 -3.25L1633.07 -30L1643.25 -22.06L1653.43 -30L1688.06 -3.25L1643.25 30.62ZM1601.64 -3.26L1643.25 28.19L1684.86 -3.26L1653.44 -27.54L1643.25 -19.59L1633.06 -27.54L1601.64 -3.26Z" fill="#F1C637"/>
<path d="M1643.25 6.83L1615.44 -14.27L1616.61 -15.81L1643.25 4.39L1669.89 -15.81L1671.07 -14.27L1643.25 6.83Z" fill="#F1C637"/>
<path d="M1688.06 -3.26L1719.49 -27.54L1729.67 -19.59V-22.06L1719.49 -30L1684.86 -3.25L1729.67 30.62V28.19L1688.06 -3.26Z" fill="#F1C637"/>
<path d="M1703.03 -15.81L1701.86 -14.27L1729.67 6.83V4.39L1703.03 -15.81Z" fill="#F1C637"/>
<path d="M10.18 22.1499L0 30.0899V32.5599L10.18 24.6099L41.61 48.8799L0 80.3399V82.7699L44.81 48.8999L10.18 22.1499Z" fill="#F1C637"/>
<path d="M26.64 36.3299L0 56.5399V58.9799L27.81 37.8799L26.64 36.3299Z" fill="#F1C637"/>
<path d="M86.42 82.7699L41.61 48.8999L76.24 22.1499L86.42 30.0899L96.6 22.1499L131.23 48.8999L86.42 82.7699ZM44.81 48.8799L86.42 80.3299L128.03 48.8799L96.6 24.6099L86.41 32.5599L76.23 24.6099L44.81 48.8799Z" fill="#F1C637"/>
<path d="M86.42 58.9799L58.6 37.8799L59.78 36.3299L86.42 56.5399L113.06 36.3299L114.23 37.8799L86.42 58.9799Z" fill="#F1C637"/>
<path d="M172.84 82.7699L128.03 48.8999L162.66 22.1499L172.84 30.0899L183.02 22.1499L217.65 48.8999L172.84 82.7699ZM131.22 48.8799L172.83 80.3299L214.44 48.8799L183.02 24.6099L172.83 32.5599L162.65 24.6099L131.22 48.8799Z" fill="#F1C637"/>
<path d="M172.84 58.9799L145.02 37.8799L146.2 36.3299L172.84 56.5399L199.48 36.3299L200.65 37.8799L172.84 58.9799Z" fill="#F1C637"/>
<path d="M259.25 82.7699L214.44 48.8999L249.07 22.1499L259.25 30.0899L269.43 22.1499L304.06 48.8999L259.25 82.7699ZM217.64 48.8799L259.25 80.3299L300.86 48.8799L269.44 24.6099L259.25 32.5599L249.07 24.6099L217.64 48.8799Z" fill="#F1C637"/>
<path d="M259.25 58.9799L231.44 37.8799L232.61 36.3299L259.25 56.5399L285.89 36.3299L287.07 37.8799L259.25 58.9799Z" fill="#F1C637"/>
<path d="M304.06 48.8799L335.49 24.6099L345.67 32.5599V30.0899L335.49 22.1499L300.86 48.8999L345.67 82.7699V80.3399L304.06 48.8799Z" fill="#F1C637"/>
<path d="M319.03 36.3299L317.86 37.8799L345.67 58.9799V56.5399L319.03 36.3299Z" fill="#F1C637"/>
<path d="M10.18 72.3799L0 80.3199V82.7799L10.18 74.8399L41.61 99.1099L0 130.56V133L44.81 99.1299L10.18 72.3799Z" fill="#F1C637"/>
<path d="M26.64 86.5599L0 106.77V109.2L27.81 88.1099L26.64 86.5599Z" fill="#F1C637"/>
<path d="M86.42 133L41.61 99.1299L76.24 72.3799L86.42 80.3199L96.6 72.3799L131.23 99.1299L86.42 133ZM44.81 99.1099L86.42 130.56L128.03 99.1099L96.61 74.8399L86.42 82.7899L76.23 74.8399L44.81 99.1099Z" fill="#F1C637"/>
<path d="M86.42 109.2L58.6 88.1099L59.78 86.5599L86.42 106.77L113.06 86.5599L114.23 88.1099L86.42 109.2Z" fill="#F1C637"/>
<path d="M172.84 133L128.03 99.1299L162.66 72.3799L172.84 80.3199L183.02 72.3799L217.65 99.1299L172.84 133ZM131.22 99.1099L172.83 130.56L214.44 99.1099L183.02 74.8399L172.83 82.7899L162.64 74.8399L131.22 99.1099Z" fill="#F1C637"/>
<path d="M172.84 109.2L145.02 88.1099L146.2 86.5599L172.84 106.77L199.48 86.5599L200.65 88.1099L172.84 109.2Z" fill="#F1C637"/>
<path d="M259.25 133L214.44 99.1299L249.07 72.3799L259.25 80.3199L269.43 72.3799L304.06 99.1299L259.25 133ZM217.64 99.1099L259.25 130.56L300.86 99.1099L269.44 74.8399L259.25 82.7899L249.06 74.8399L217.64 99.1099Z" fill="#F1C637"/>
<path d="M259.25 109.2L231.44 88.1099L232.61 86.5599L259.25 106.77L285.89 86.5599L287.07 88.1099L259.25 109.2Z" fill="#F1C637"/>
<path d="M304.06 99.1099L335.49 74.8399L345.67 82.7799V80.3199L335.49 72.3799L300.86 99.1299L345.67 133V130.56L304.06 99.1099Z" fill="#F1C637"/>
<path d="M319.03 86.5599L317.86 88.1099L345.67 109.2V106.77L319.03 86.5599Z" fill="#F1C637"/>
<path d="M356.18 72.4399L346 80.3799V82.8399L356.18 74.8999L387.61 99.1699L346 130.62V133.06L390.81 99.1899L356.18 72.4399Z" fill="#F1C637"/>
<path d="M372.64 86.6199L346 106.83V109.26L373.81 88.1699L372.64 86.6199Z" fill="#F1C637"/>
<path d="M432.42 133.06L387.61 99.1899L422.24 72.4399L432.42 80.3799L442.6 72.4399L477.23 99.1899L432.42 133.06ZM390.81 99.1699L432.42 130.62L474.03 99.1699L442.61 74.8999L432.42 82.8499L422.23 74.8999L390.81 99.1699Z" fill="#F1C637"/>
<path d="M432.42 109.26L404.6 88.1699L405.78 86.6199L432.42 106.83L459.06 86.6199L460.23 88.1699L432.42 109.26Z" fill="#F1C637"/>
<path d="M518.84 133.06L474.03 99.1899L508.66 72.4399L518.84 80.3799L529.02 72.4399L563.65 99.1899L518.84 133.06ZM477.22 99.1699L518.83 130.62L560.44 99.1699L529.02 74.8999L518.83 82.8499L508.64 74.8999L477.22 99.1699Z" fill="#F1C637"/>
<path d="M518.84 109.26L491.02 88.1699L492.2 86.6199L518.84 106.83L545.48 86.6199L546.65 88.1699L518.84 109.26Z" fill="#F1C637"/>
<path d="M605.25 133.06L560.44 99.1899L595.07 72.4399L605.25 80.3799L615.43 72.4399L650.06 99.1899L605.25 133.06ZM563.64 99.1699L605.25 130.62L646.86 99.1699L615.44 74.8999L605.25 82.8499L595.06 74.8999L563.64 99.1699Z" fill="#F1C637"/>
<path d="M605.25 109.26L577.44 88.1699L578.61 86.6199L605.25 106.83L631.89 86.6199L633.07 88.1699L605.25 109.26Z" fill="#F1C637"/>
<path d="M650.06 99.1699L681.49 74.8999L691.67 82.8399V80.3799L681.49 72.4399L646.86 99.1899L691.67 133.06V130.62L650.06 99.1699Z" fill="#F1C637"/>
<path d="M665.03 86.6199L663.86 88.1699L691.67 109.26V106.83L665.03 86.6199Z" fill="#F1C637"/>
<path d="M702.18 72.5L692 80.44V82.9L702.18 74.96L733.61 99.23L692 130.68V133.12L736.81 99.25L702.18 72.5Z" fill="#F1C637"/>
<path d="M718.64 86.68L692 106.89V109.32L719.81 88.23L718.64 86.68Z" fill="#F1C637"/>
<path d="M778.42 133.12L733.61 99.25L768.24 72.5L778.42 80.44L788.6 72.5L823.23 99.25L778.42 133.12ZM736.81 99.23L778.42 130.68L820.03 99.23L788.61 74.96L778.42 82.91L768.23 74.96L736.81 99.23Z" fill="#F1C637"/>
<path d="M778.42 109.32L750.6 88.23L751.78 86.68L778.42 106.89L805.06 86.68L806.23 88.23L778.42 109.32Z" fill="#F1C637"/>
<path d="M864.84 133.12L820.03 99.25L854.66 72.5L864.84 80.44L875.02 72.5L909.65 99.25L864.84 133.12ZM823.22 99.23L864.83 130.68L906.44 99.23L875.02 74.96L864.83 82.91L854.64 74.96L823.22 99.23Z" fill="#F1C637"/>
<path d="M864.84 109.32L837.02 88.23L838.2 86.68L864.84 106.89L891.48 86.68L892.65 88.23L864.84 109.32Z" fill="#F1C637"/>
<path d="M951.25 133.12L906.44 99.25L941.07 72.5L951.25 80.44L961.43 72.5L996.06 99.25L951.25 133.12ZM909.64 99.23L951.25 130.68L992.86 99.23L961.44 74.96L951.25 82.91L941.06 74.96L909.64 99.23Z" fill="#F1C637"/>
<path d="M951.25 109.32L923.44 88.23L924.61 86.68L951.25 106.89L977.89 86.68L979.07 88.23L951.25 109.32Z" fill="#F1C637"/>
<path d="M996.06 99.23L1027.49 74.96L1037.67 82.9V80.44L1027.49 72.5L992.86 99.25L1037.67 133.12V130.68L996.06 99.23Z" fill="#F1C637"/>
<path d="M1011.03 86.68L1009.86 88.23L1037.67 109.32V106.89L1011.03 86.68Z" fill="#F1C637"/>
<path d="M1048.18 72.5601L1038 80.5001V82.9601L1048.18 75.0201L1079.61 99.2901L1038 130.74V133.18L1082.81 99.3101L1048.18 72.5601Z" fill="#F1C637"/>
<path d="M1064.64 86.7401L1038 106.95V109.38L1065.81 88.2901L1064.64 86.7401Z" fill="#F1C637"/>
<path d="M1124.42 133.18L1079.61 99.3101L1114.24 72.5601L1124.42 80.5001L1134.6 72.5601L1169.23 99.3101L1124.42 133.18ZM1082.81 99.2901L1124.42 130.74L1166.03 99.2901L1134.61 75.0201L1124.42 82.97L1114.23 75.0201L1082.81 99.2901Z" fill="#F1C637"/>
<path d="M1124.42 109.38L1096.6 88.2901L1097.78 86.7401L1124.42 106.95L1151.06 86.7401L1152.23 88.2901L1124.42 109.38Z" fill="#F1C637"/>
<path d="M1210.84 133.18L1166.03 99.3101L1200.66 72.5601L1210.84 80.5001L1221.02 72.5601L1255.65 99.3101L1210.84 133.18ZM1169.22 99.2901L1210.83 130.74L1252.44 99.2901L1221.02 75.0201L1210.83 82.97L1200.64 75.0201L1169.22 99.2901Z" fill="#F1C637"/>
<path d="M1210.84 109.38L1183.02 88.2901L1184.2 86.7401L1210.84 106.95L1237.48 86.7401L1238.65 88.2901L1210.84 109.38Z" fill="#F1C637"/>
<path d="M1297.25 133.18L1252.44 99.3101L1287.07 72.5601L1297.25 80.5001L1307.43 72.5601L1342.06 99.3101L1297.25 133.18ZM1255.64 99.2901L1297.25 130.74L1338.86 99.2901L1307.44 75.0201L1297.25 82.97L1287.06 75.0201L1255.64 99.2901Z" fill="#F1C637"/>
<path d="M1297.25 109.38L1269.44 88.2901L1270.61 86.7401L1297.25 106.95L1323.89 86.7401L1325.07 88.2901L1297.25 109.38Z" fill="#F1C637"/>
<path d="M1342.06 99.2901L1373.49 75.0201L1383.67 82.9601V80.5001L1373.49 72.5601L1338.86 99.3101L1383.67 133.18V130.74L1342.06 99.2901Z" fill="#F1C637"/>
<path d="M1357.03 86.7401L1355.86 88.2901L1383.67 109.38V106.95L1357.03 86.7401Z" fill="#F1C637"/>
<path d="M1394.18 72.6201L1384 80.5601V83.0201L1394.18 75.0801L1425.61 99.3501L1384 130.8V133.24L1428.81 99.3701L1394.18 72.6201Z" fill="#F1C637"/>
<path d="M1410.64 86.8001L1384 107.01V109.44L1411.81 88.3501L1410.64 86.8001Z" fill="#F1C637"/>
<path d="M1470.42 133.24L1425.61 99.3701L1460.24 72.6201L1470.42 80.5601L1480.6 72.6201L1515.23 99.3701L1470.42 133.24ZM1428.81 99.3501L1470.42 130.8L1512.03 99.3501L1480.61 75.0801L1470.42 83.0301L1460.23 75.0801L1428.81 99.3501Z" fill="#F1C637"/>
<path d="M1470.42 109.44L1442.6 88.3501L1443.78 86.8001L1470.42 107.01L1497.06 86.8001L1498.23 88.3501L1470.42 109.44Z" fill="#F1C637"/>
<path d="M1556.84 133.24L1512.03 99.3701L1546.66 72.6201L1556.84 80.5601L1567.02 72.6201L1601.65 99.3701L1556.84 133.24ZM1515.22 99.3501L1556.83 130.8L1598.44 99.3501L1567.02 75.0801L1556.83 83.0301L1546.64 75.0801L1515.22 99.3501Z" fill="#F1C637"/>
<path d="M1556.84 109.44L1529.02 88.3501L1530.2 86.8001L1556.84 107.01L1583.48 86.8001L1584.65 88.3501L1556.84 109.44Z" fill="#F1C637"/>
<path d="M1643.25 133.24L1598.44 99.3701L1633.07 72.6201L1643.25 80.5601L1653.43 72.6201L1688.06 99.3701L1643.25 133.24ZM1601.64 99.3501L1643.25 130.8L1684.86 99.3501L1653.44 75.0801L1643.25 83.0301L1633.06 75.0801L1601.64 99.3501Z" fill="#F1C637"/>
<path d="M1643.25 109.44L1615.44 88.3501L1616.61 86.8001L1643.25 107.01L1669.89 86.8001L1671.07 88.3501L1643.25 109.44Z" fill="#F1C637"/>
<path d="M1688.06 99.3501L1719.49 75.0801L1729.67 83.0201V80.5601L1719.49 72.6201L1684.86 99.3701L1729.67 133.24V130.8L1688.06 99.3501Z" fill="#F1C637"/>
<path d="M1703.03 86.8001L1701.86 88.3501L1729.67 109.44V107.01L1703.03 86.8001Z" fill="#F1C637"/>
<path d="M356.18 22.4399L346 30.3799V32.8399L356.18 24.8999L387.61 49.1699L346 80.6199V83.0599L390.81 49.1899L356.18 22.4399Z" fill="#F1C637"/>
<path d="M372.64 36.6199L346 56.8299V59.2599L373.81 38.1699L372.64 36.6199Z" fill="#F1C637"/>
<path d="M432.42 83.0599L387.61 49.1899L422.24 22.4399L432.42 30.3799L442.6 22.4399L477.23 49.1899L432.42 83.0599ZM390.81 49.1699L432.42 80.6199L474.03 49.1699L442.61 24.8999L432.42 32.8499L422.23 24.8999L390.81 49.1699Z" fill="#F1C637"/>
<path d="M432.42 59.2599L404.6 38.1699L405.78 36.6199L432.42 56.8299L459.06 36.6199L460.23 38.1699L432.42 59.2599Z" fill="#F1C637"/>
<path d="M518.84 83.0599L474.03 49.1899L508.66 22.4399L518.84 30.3799L529.02 22.4399L563.65 49.1899L518.84 83.0599ZM477.22 49.1699L518.83 80.6199L560.44 49.1699L529.02 24.8999L518.83 32.8499L508.64 24.8999L477.22 49.1699Z" fill="#F1C637"/>
<path d="M518.84 59.2599L491.02 38.1699L492.2 36.6199L518.84 56.8299L545.48 36.6199L546.65 38.1699L518.84 59.2599Z" fill="#F1C637"/>
<path d="M605.25 83.0599L560.44 49.1899L595.07 22.4399L605.25 30.3799L615.43 22.4399L650.06 49.1899L605.25 83.0599ZM563.64 49.1699L605.25 80.6199L646.86 49.1699L615.44 24.8999L605.25 32.8499L595.06 24.8999L563.64 49.1699Z" fill="#F1C637"/>
<path d="M605.25 59.2599L577.44 38.1699L578.61 36.6199L605.25 56.8299L631.89 36.6199L633.07 38.1699L605.25 59.2599Z" fill="#F1C637"/>
<path d="M650.06 49.1699L681.49 24.8999L691.67 32.8399V30.3799L681.49 22.4399L646.86 49.1899L691.67 83.0599V80.6199L650.06 49.1699Z" fill="#F1C637"/>
<path d="M665.03 36.6199L663.86 38.1699L691.67 59.2599V56.8299L665.03 36.6199Z" fill="#F1C637"/>
<path d="M702.18 22.4399L692 30.3799V32.8399L702.18 24.8999L733.61 49.1699L692 80.6199V83.0599L736.81 49.1899L702.18 22.4399Z" fill="#F1C637"/>
<path d="M718.64 36.6199L692 56.8299V59.2599L719.81 38.1699L718.64 36.6199Z" fill="#F1C637"/>
<path d="M778.42 83.0599L733.61 49.1899L768.24 22.4399L778.42 30.3799L788.6 22.4399L823.23 49.1899L778.42 83.0599ZM736.81 49.1699L778.42 80.6199L820.03 49.1699L788.61 24.8999L778.42 32.8499L768.23 24.8999L736.81 49.1699Z" fill="#F1C637"/>
<path d="M778.42 59.2599L750.6 38.1699L751.78 36.6199L778.42 56.8299L805.06 36.6199L806.23 38.1699L778.42 59.2599Z" fill="#F1C637"/>
<path d="M864.84 83.0599L820.03 49.1899L854.66 22.4399L864.84 30.3799L875.02 22.4399L909.65 49.1899L864.84 83.0599ZM823.22 49.1699L864.83 80.6199L906.44 49.1699L875.02 24.8999L864.83 32.8499L854.64 24.8999L823.22 49.1699Z" fill="#F1C637"/>
<path d="M864.84 59.2599L837.02 38.1699L838.2 36.6199L864.84 56.8299L891.48 36.6199L892.65 38.1699L864.84 59.2599Z" fill="#F1C637"/>
<path d="M951.25 83.0599L906.44 49.1899L941.07 22.4399L951.25 30.3799L961.43 22.4399L996.06 49.1899L951.25 83.0599ZM909.64 49.1699L951.25 80.6199L992.86 49.1699L961.44 24.8999L951.25 32.8499L941.06 24.8999L909.64 49.1699Z" fill="#F1C637"/>
<path d="M951.25 59.2599L923.44 38.1699L924.61 36.6199L951.25 56.8299L977.89 36.6199L979.07 38.1699L951.25 59.2599Z" fill="#F1C637"/>
<path d="M996.06 49.1699L1027.49 24.8999L1037.67 32.8399V30.3799L1027.49 22.4399L992.86 49.1899L1037.67 83.0599V80.6199L996.06 49.1699Z" fill="#F1C637"/>
<path d="M1011.03 36.6199L1009.86 38.1699L1037.67 59.2599V56.8299L1011.03 36.6199Z" fill="#F1C637"/>
<path d="M1048.18 22.4399L1038 30.3799V32.8399L1048.18 24.8999L1079.61 49.1699L1038 80.6199V83.0599L1082.81 49.1899L1048.18 22.4399Z" fill="#F1C637"/>
<path d="M1064.64 36.6199L1038 56.8299V59.2599L1065.81 38.1699L1064.64 36.6199Z" fill="#F1C637"/>
<path d="M1124.42 83.0599L1079.61 49.1899L1114.24 22.4399L1124.42 30.3799L1134.6 22.4399L1169.23 49.1899L1124.42 83.0599ZM1082.81 49.1699L1124.42 80.6199L1166.03 49.1699L1134.61 24.8999L1124.42 32.8499L1114.23 24.8999L1082.81 49.1699Z" fill="#F1C637"/>
<path d="M1124.42 59.2599L1096.6 38.1699L1097.78 36.6199L1124.42 56.8299L1151.06 36.6199L1152.23 38.1699L1124.42 59.2599Z" fill="#F1C637"/>
<path d="M1210.84 83.0599L1166.03 49.1899L1200.66 22.4399L1210.84 30.3799L1221.02 22.4399L1255.65 49.1899L1210.84 83.0599ZM1169.22 49.1699L1210.83 80.6199L1252.44 49.1699L1221.02 24.8999L1210.83 32.8499L1200.64 24.8999L1169.22 49.1699Z" fill="#F1C637"/>
<path d="M1210.84 59.2599L1183.02 38.1699L1184.2 36.6199L1210.84 56.8299L1237.48 36.6199L1238.65 38.1699L1210.84 59.2599Z" fill="#F1C637"/>
<path d="M1297.25 83.0599L1252.44 49.1899L1287.07 22.4399L1297.25 30.3799L1307.43 22.4399L1342.06 49.1899L1297.25 83.0599ZM1255.64 49.1699L1297.25 80.6199L1338.86 49.1699L1307.44 24.8999L1297.25 32.8499L1287.06 24.8999L1255.64 49.1699Z" fill="#F1C637"/>
<path d="M1297.25 59.2599L1269.44 38.1699L1270.61 36.6199L1297.25 56.8299L1323.89 36.6199L1325.07 38.1699L1297.25 59.2599Z" fill="#F1C637"/>
<path d="M1342.06 49.1699L1373.49 24.8999L1383.67 32.8399V30.3799L1373.49 22.4399L1338.86 49.1899L1383.67 83.0599V80.6199L1342.06 49.1699Z" fill="#F1C637"/>
<path d="M1357.03 36.6199L1355.86 38.1699L1383.67 59.2599V56.8299L1357.03 36.6199Z" fill="#F1C637"/>
<path d="M1394.18 22.4399L1384 30.3799V32.8399L1394.18 24.8999L1425.61 49.1699L1384 80.6199V83.0599L1428.81 49.1899L1394.18 22.4399Z" fill="#F1C637"/>
<path d="M1410.64 36.6199L1384 56.8299V59.2599L1411.81 38.1699L1410.64 36.6199Z" fill="#F1C637"/>
<path d="M1470.42 83.0599L1425.61 49.1899L1460.24 22.4399L1470.42 30.3799L1480.6 22.4399L1515.23 49.1899L1470.42 83.0599ZM1428.81 49.1699L1470.42 80.6199L1512.03 49.1699L1480.61 24.8999L1470.42 32.8499L1460.23 24.8999L1428.81 49.1699Z" fill="#F1C637"/>
<path d="M1470.42 59.2599L1442.6 38.1699L1443.78 36.6199L1470.42 56.8299L1497.06 36.6199L1498.23 38.1699L1470.42 59.2599Z" fill="#F1C637"/>
<path d="M1556.84 83.0599L1512.03 49.1899L1546.66 22.4399L1556.84 30.3799L1567.02 22.4399L1601.65 49.1899L1556.84 83.0599ZM1515.22 49.1699L1556.83 80.6199L1598.44 49.1699L1567.02 24.8999L1556.83 32.8499L1546.64 24.8999L1515.22 49.1699Z" fill="#F1C637"/>
<path d="M1556.84 59.2599L1529.02 38.1699L1530.2 36.6199L1556.84 56.8299L1583.48 36.6199L1584.65 38.1699L1556.84 59.2599Z" fill="#F1C637"/>
<path d="M1643.25 83.0599L1598.44 49.1899L1633.07 22.4399L1643.25 30.3799L1653.43 22.4399L1688.06 49.1899L1643.25 83.0599ZM1601.64 49.1699L1643.25 80.6199L1684.86 49.1699L1653.44 24.8999L1643.25 32.8499L1633.06 24.8999L1601.64 49.1699Z" fill="#F1C637"/>
<path d="M1643.25 59.2599L1615.44 38.1699L1616.61 36.6199L1643.25 56.8299L1669.89 36.6199L1671.07 38.1699L1643.25 59.2599Z" fill="#F1C637"/>
<path d="M1688.06 49.1699L1719.49 24.8999L1729.67 32.8399V30.3799L1719.49 22.4399L1684.86 49.1899L1729.67 83.0599V80.6199L1688.06 49.1699Z" fill="#F1C637"/>
<path d="M1703.03 36.6199L1701.86 38.1699L1729.67 59.2599V56.8299L1703.03 36.6199Z" fill="#F1C637"/>
</g>
</svg>
