<svg xmlns="http://www.w3.org/2000/svg" xmlns:xlink="http://www.w3.org/1999/xlink" viewBox="0 0 49.33 49.33"><defs><style>.cls-1{fill:none;}.cls-2{fill:#fff;}.cls-3{fill:#6e422e;}.cls-4{clip-path:url(#clip-path);}.cls-5{clip-path:url(#clip-path-2);}.cls-6{clip-path:url(#clip-path-3);}.cls-7{clip-path:url(#clip-path-4);}.cls-8{clip-path:url(#clip-path-5);}.cls-9{clip-path:url(#clip-path-6);}.cls-10{clip-path:url(#clip-path-7);}.cls-11{clip-path:url(#clip-path-8);}.cls-12{fill:#bc922e;}</style><clipPath id="clip-path" transform="translate(0.67 0.67)"><polygon class="cls-1" points="1.33 2 1.33 1.33 0 0 0 2 1.33 2"/></clipPath><clipPath id="clip-path-2" transform="translate(0.67 0.67)"><polygon class="cls-1" points="2 1.33 1.33 1.33 0 0 2 0 2 1.33"/></clipPath><clipPath id="clip-path-3" transform="translate(0.67 0.67)"><polygon class="cls-1" points="46 1.33 46.67 1.33 48 0 46 0 46 1.33"/></clipPath><clipPath id="clip-path-4" transform="translate(0.67 0.67)"><polygon class="cls-1" points="46.67 2 46.67 1.33 48 0 48 2 46.67 2"/></clipPath><clipPath id="clip-path-5" transform="translate(0.67 0.67)"><polygon class="cls-1" points="46.67 46 46.67 46.67 48 48 48 46 46.67 46"/></clipPath><clipPath id="clip-path-6" transform="translate(0.67 0.67)"><polygon class="cls-1" points="46 46.67 46.67 46.67 48 48 46 48 46 46.67"/></clipPath><clipPath id="clip-path-7" transform="translate(0.67 0.67)"><polygon class="cls-1" points="2 46.67 1.33 46.67 0 48 2 48 2 46.67"/></clipPath><clipPath id="clip-path-8" transform="translate(0.67 0.67)"><polygon class="cls-1" points="1.33 46 1.33 46.67 0 48 0 46 1.33 46"/></clipPath></defs><g id="Layer_2" data-name="Layer 2"><g id="Layer_1-2" data-name="Layer 1"><rect class="cls-2" x="1.33" y="1.33" width="46.67" height="46.67"/><polygon class="cls-3" points="1.73 44.88 1.47 44.88 1.47 44.05 0.67 44.05 0.67 46.53 1.47 46.53 1.47 45.7 1.73 45.7 1.73 46.67 2 46.67 2 45.7 2 45.43 2 45.43 1.2 45.43 1.2 46.25 0.93 46.25 0.93 45.43 0.93 45.15 0.93 44.33 1.2 44.33 1.2 45.15 1.73 45.15 1.73 45.15 2 45.15 2 45.15 2 44.88 2 43.92 1.73 43.92 1.73 44.88"/><polygon class="cls-3" points="1.73 42.13 1.47 42.13 1.47 41.3 0.67 41.3 0.67 43.78 1.47 43.78 1.47 42.95 1.73 42.95 1.73 43.92 2 43.92 2 42.95 2 42.68 2 42.68 1.2 42.68 1.2 43.5 0.93 43.5 0.93 42.68 0.93 42.4 0.93 41.58 1.2 41.58 1.2 42.4 1.73 42.4 1.73 42.4 2 42.4 2 42.4 2 42.13 2 41.17 1.73 41.17 1.73 42.13"/><polygon class="cls-3" points="1.73 39.38 1.47 39.38 1.47 38.55 0.67 38.55 0.67 41.03 1.47 41.03 1.47 40.2 1.73 40.2 1.73 41.17 2 41.17 2 40.2 2 39.93 2 39.93 1.2 39.93 1.2 40.75 0.93 40.75 0.93 39.93 0.93 39.65 0.93 38.83 1.2 38.83 1.2 39.65 1.73 39.65 1.73 39.65 2 39.65 2 39.65 2 39.38 2 38.42 1.73 38.42 1.73 39.38"/><polygon class="cls-3" points="1.73 36.63 1.47 36.63 1.47 35.8 0.67 35.8 0.67 38.28 1.47 38.28 1.47 37.45 1.73 37.45 1.73 38.42 2 38.42 2 37.45 2 37.18 2 37.18 1.2 37.18 1.2 38 0.93 38 0.93 37.18 0.93 36.9 0.93 36.08 1.2 36.08 1.2 36.9 1.73 36.9 1.73 36.9 2 36.9 2 36.9 2 36.63 2 35.67 1.73 35.67 1.73 36.63"/><polygon class="cls-3" points="1.73 33.88 1.47 33.88 1.47 33.05 0.67 33.05 0.67 35.53 1.47 35.53 1.47 34.7 1.73 34.7 1.73 35.67 2 35.67 2 34.7 2 34.43 2 34.43 1.2 34.43 1.2 35.25 0.93 35.25 0.93 34.43 0.93 34.15 0.93 33.33 1.2 33.33 1.2 34.15 1.73 34.15 1.73 34.15 2 34.15 2 34.15 2 33.88 2 32.92 1.73 32.92 1.73 33.88"/><polygon class="cls-3" points="1.73 31.13 1.47 31.13 1.47 30.3 0.67 30.3 0.67 32.78 1.47 32.78 1.47 31.95 1.73 31.95 1.73 32.92 2 32.92 2 31.95 2 31.68 2 31.68 1.2 31.68 1.2 32.5 0.93 32.5 0.93 31.68 0.93 31.4 0.93 30.58 1.2 30.58 1.2 31.4 1.73 31.4 1.73 31.4 2 31.4 2 31.4 2 31.13 2 30.17 1.73 30.17 1.73 31.13"/><polygon class="cls-3" points="1.73 28.38 1.47 28.38 1.47 27.55 0.67 27.55 0.67 30.03 1.47 30.03 1.47 29.2 1.73 29.2 1.73 30.17 2 30.17 2 29.2 2 28.93 2 28.93 1.2 28.93 1.2 29.75 0.93 29.75 0.93 28.93 0.93 28.65 0.93 27.83 1.2 27.83 1.2 28.65 1.73 28.65 1.73 28.65 2 28.65 2 28.65 2 28.38 2 27.42 1.73 27.42 1.73 28.38"/><polygon class="cls-3" points="1.73 25.63 1.47 25.63 1.47 24.8 0.67 24.8 0.67 27.28 1.47 27.28 1.47 26.45 1.73 26.45 1.73 27.42 2 27.42 2 26.45 2 26.18 2 26.18 1.2 26.18 1.2 27 0.93 27 0.93 26.18 0.93 25.9 0.93 25.08 1.2 25.08 1.2 25.9 1.73 25.9 1.73 25.9 2 25.9 2 25.9 2 25.63 2 24.67 1.73 24.67 1.73 25.63"/><polygon class="cls-3" points="1.73 22.88 1.47 22.88 1.47 22.05 0.67 22.05 0.67 24.53 1.47 24.53 1.47 23.7 1.73 23.7 1.73 24.67 2 24.67 2 23.7 2 23.43 2 23.43 1.2 23.43 1.2 24.25 0.93 24.25 0.93 23.43 0.93 23.15 0.93 22.33 1.2 22.33 1.2 23.15 1.73 23.15 1.73 23.15 2 23.15 2 23.15 2 22.88 2 21.92 1.73 21.92 1.73 22.88"/><polygon class="cls-3" points="1.73 20.13 1.47 20.13 1.47 19.3 0.67 19.3 0.67 21.78 1.47 21.78 1.47 20.95 1.73 20.95 1.73 21.92 2 21.92 2 20.95 2 20.68 2 20.68 1.2 20.68 1.2 21.5 0.93 21.5 0.93 20.68 0.93 20.4 0.93 19.58 1.2 19.58 1.2 20.4 1.73 20.4 1.73 20.4 2 20.4 2 20.4 2 20.13 2 19.17 1.73 19.17 1.73 20.13"/><polygon class="cls-3" points="1.73 17.38 1.47 17.38 1.47 16.55 0.67 16.55 0.67 19.03 1.47 19.03 1.47 18.2 1.73 18.2 1.73 19.17 2 19.17 2 18.2 2 17.93 2 17.93 1.2 17.93 1.2 18.75 0.93 18.75 0.93 17.93 0.93 17.65 0.93 16.83 1.2 16.83 1.2 17.65 1.73 17.65 1.73 17.65 2 17.65 2 17.65 2 17.38 2 16.42 1.73 16.42 1.73 17.38"/><polygon class="cls-3" points="1.73 14.63 1.47 14.63 1.47 13.8 0.67 13.8 0.67 16.28 1.47 16.28 1.47 15.45 1.73 15.45 1.73 16.42 2 16.42 2 15.45 2 15.18 2 15.18 1.2 15.18 1.2 16 0.93 16 0.93 15.18 0.93 14.9 0.93 14.08 1.2 14.08 1.2 14.9 1.73 14.9 1.73 14.9 2 14.9 2 14.9 2 14.63 2 13.67 1.73 13.67 1.73 14.63"/><polygon class="cls-3" points="1.73 11.88 1.47 11.88 1.47 11.05 0.67 11.05 0.67 13.53 1.47 13.53 1.47 12.7 1.73 12.7 1.73 13.67 2 13.67 2 12.7 2 12.43 2 12.43 1.2 12.43 1.2 13.25 0.93 13.25 0.93 12.43 0.93 12.15 0.93 11.33 1.2 11.33 1.2 12.15 1.73 12.15 1.73 12.15 2 12.15 2 12.15 2 11.88 2 10.92 1.73 10.92 1.73 11.88"/><polygon class="cls-3" points="1.73 9.13 1.47 9.13 1.47 8.3 0.67 8.3 0.67 10.78 1.47 10.78 1.47 9.95 1.73 9.95 1.73 10.92 2 10.92 2 9.95 2 9.68 2 9.68 1.2 9.68 1.2 10.5 0.93 10.5 0.93 9.68 0.93 9.4 0.93 8.58 1.2 8.58 1.2 9.4 1.73 9.4 1.73 9.4 2 9.4 2 9.4 2 9.13 2 8.17 1.73 8.17 1.73 9.13"/><polygon class="cls-3" points="1.73 6.38 1.47 6.38 1.47 5.55 0.67 5.55 0.67 8.03 1.47 8.03 1.47 7.2 1.73 7.2 1.73 8.17 2 8.17 2 7.2 2 6.93 2 6.93 1.2 6.93 1.2 7.75 0.93 7.75 0.93 6.93 0.93 6.65 0.93 5.83 1.2 5.83 1.2 6.65 1.73 6.65 1.73 6.65 2 6.65 2 6.65 2 6.38 2 5.42 1.73 5.42 1.73 6.38"/><polygon class="cls-3" points="1.73 3.63 1.47 3.63 1.47 2.8 0.67 2.8 0.67 5.28 1.47 5.28 1.47 4.45 1.73 4.45 1.73 5.42 2 5.42 2 4.45 2 4.18 2 4.18 1.2 4.18 1.2 5 0.93 5 0.93 4.18 0.93 3.9 0.93 3.08 1.2 3.08 1.2 3.9 1.73 3.9 1.73 3.9 2 3.9 2 3.9 2 3.63 2 2.67 1.73 2.67 1.73 3.63"/><polygon class="cls-3" points="4.46 1.73 4.46 1.47 5.28 1.47 5.28 0.67 2.81 0.67 2.81 1.47 3.63 1.47 3.63 1.73 2.67 1.73 2.67 2 3.63 2 3.9 2 3.91 2 3.91 1.2 3.08 1.2 3.08 0.93 3.91 0.93 4.18 0.93 5.01 0.93 5.01 1.2 4.18 1.2 4.18 1.73 4.18 1.73 4.18 2 4.18 2 4.46 2 5.42 2 5.42 1.73 4.46 1.73"/><polygon class="cls-3" points="7.21 1.73 7.21 1.47 8.03 1.47 8.03 0.67 5.56 0.67 5.56 1.47 6.38 1.47 6.38 1.73 5.42 1.73 5.42 2 6.38 2 6.65 2 6.66 2 6.66 1.2 5.83 1.2 5.83 0.93 6.66 0.93 6.93 0.93 7.76 0.93 7.76 1.2 6.93 1.2 6.93 1.73 6.93 1.73 6.93 2 6.93 2 7.21 2 8.17 2 8.17 1.73 7.21 1.73"/><polygon class="cls-3" points="9.96 1.73 9.96 1.47 10.78 1.47 10.78 0.67 8.31 0.67 8.31 1.47 9.13 1.47 9.13 1.73 8.17 1.73 8.17 2 9.13 2 9.4 2 9.41 2 9.41 1.2 8.58 1.2 8.58 0.93 9.41 0.93 9.68 0.93 10.51 0.93 10.51 1.2 9.68 1.2 9.68 1.73 9.68 1.73 9.68 2 9.68 2 9.96 2 10.92 2 10.92 1.73 9.96 1.73"/><polygon class="cls-3" points="12.71 1.73 12.71 1.47 13.53 1.47 13.53 0.67 11.06 0.67 11.06 1.47 11.88 1.47 11.88 1.73 10.92 1.73 10.92 2 11.88 2 12.15 2 12.16 2 12.16 1.2 11.33 1.2 11.33 0.93 12.16 0.93 12.43 0.93 13.26 0.93 13.26 1.2 12.43 1.2 12.43 1.73 12.43 1.73 12.43 2 12.43 2 12.71 2 13.67 2 13.67 1.73 12.71 1.73"/><polygon class="cls-3" points="15.46 1.73 15.46 1.47 16.28 1.47 16.28 0.67 13.81 0.67 13.81 1.47 14.63 1.47 14.63 1.73 13.67 1.73 13.67 2 14.63 2 14.9 2 14.91 2 14.91 1.2 14.08 1.2 14.08 0.93 14.91 0.93 15.18 0.93 16.01 0.93 16.01 1.2 15.18 1.2 15.18 1.73 15.18 1.73 15.18 2 15.18 2 15.46 2 16.42 2 16.42 1.73 15.46 1.73"/><polygon class="cls-3" points="18.21 1.73 18.21 1.47 19.03 1.47 19.03 0.67 16.56 0.67 16.56 1.47 17.38 1.47 17.38 1.73 16.42 1.73 16.42 2 17.38 2 17.65 2 17.66 2 17.66 1.2 16.83 1.2 16.83 0.93 17.66 0.93 17.93 0.93 18.76 0.93 18.76 1.2 17.93 1.2 17.93 1.73 17.93 1.73 17.93 2 17.93 2 18.21 2 19.17 2 19.17 1.73 18.21 1.73"/><polygon class="cls-3" points="20.96 1.73 20.96 1.47 21.78 1.47 21.78 0.67 19.31 0.67 19.31 1.47 20.13 1.47 20.13 1.73 19.17 1.73 19.17 2 20.13 2 20.4 2 20.41 2 20.41 1.2 19.58 1.2 19.58 0.93 20.41 0.93 20.68 0.93 21.51 0.93 21.51 1.2 20.68 1.2 20.68 1.73 20.68 1.73 20.68 2 20.68 2 20.96 2 21.92 2 21.92 1.73 20.96 1.73"/><polygon class="cls-3" points="23.71 1.73 23.71 1.47 24.53 1.47 24.53 0.67 22.06 0.67 22.06 1.47 22.88 1.47 22.88 1.73 21.92 1.73 21.92 2 22.88 2 23.15 2 23.16 2 23.16 1.2 22.33 1.2 22.33 0.93 23.16 0.93 23.43 0.93 24.26 0.93 24.26 1.2 23.43 1.2 23.43 1.73 23.43 1.73 23.43 2 23.43 2 23.71 2 24.67 2 24.67 1.73 23.71 1.73"/><polygon class="cls-3" points="26.46 1.73 26.46 1.47 27.28 1.47 27.28 0.67 24.81 0.67 24.81 1.47 25.63 1.47 25.63 1.73 24.67 1.73 24.67 2 25.63 2 25.9 2 25.91 2 25.91 1.2 25.08 1.2 25.08 0.93 25.91 0.93 26.18 0.93 27.01 0.93 27.01 1.2 26.18 1.2 26.18 1.73 26.18 1.73 26.18 2 26.18 2 26.46 2 27.42 2 27.42 1.73 26.46 1.73"/><polygon class="cls-3" points="29.21 1.73 29.21 1.47 30.03 1.47 30.03 0.67 27.56 0.67 27.56 1.47 28.38 1.47 28.38 1.73 27.42 1.73 27.42 2 28.38 2 28.65 2 28.66 2 28.66 1.2 27.83 1.2 27.83 0.93 28.66 0.93 28.93 0.93 29.76 0.93 29.76 1.2 28.93 1.2 28.93 1.73 28.93 1.73 28.93 2 28.93 2 29.21 2 30.17 2 30.17 1.73 29.21 1.73"/><polygon class="cls-3" points="31.96 1.73 31.96 1.47 32.78 1.47 32.78 0.67 30.31 0.67 30.31 1.47 31.13 1.47 31.13 1.73 30.17 1.73 30.17 2 31.13 2 31.4 2 31.41 2 31.41 1.2 30.58 1.2 30.58 0.93 31.41 0.93 31.68 0.93 32.51 0.93 32.51 1.2 31.68 1.2 31.68 1.73 31.68 1.73 31.68 2 31.68 2 31.96 2 32.92 2 32.92 1.73 31.96 1.73"/><polygon class="cls-3" points="34.71 1.73 34.71 1.47 35.53 1.47 35.53 0.67 33.06 0.67 33.06 1.47 33.88 1.47 33.88 1.73 32.92 1.73 32.92 2 33.88 2 34.15 2 34.16 2 34.16 1.2 33.33 1.2 33.33 0.93 34.16 0.93 34.43 0.93 35.26 0.93 35.26 1.2 34.43 1.2 34.43 1.73 34.43 1.73 34.43 2 34.43 2 34.71 2 35.67 2 35.67 1.73 34.71 1.73"/><polygon class="cls-3" points="37.46 1.73 37.46 1.47 38.28 1.47 38.28 0.67 35.81 0.67 35.81 1.47 36.63 1.47 36.63 1.73 35.67 1.73 35.67 2 36.63 2 36.9 2 36.91 2 36.91 1.2 36.08 1.2 36.08 0.93 36.91 0.93 37.18 0.93 38.01 0.93 38.01 1.2 37.18 1.2 37.18 1.73 37.18 1.73 37.18 2 37.18 2 37.46 2 38.42 2 38.42 1.73 37.46 1.73"/><polygon class="cls-3" points="40.21 1.73 40.21 1.47 41.03 1.47 41.03 0.67 38.56 0.67 38.56 1.47 39.38 1.47 39.38 1.73 38.42 1.73 38.42 2 39.38 2 39.65 2 39.66 2 39.66 1.2 38.83 1.2 38.83 0.93 39.66 0.93 39.93 0.93 40.76 0.93 40.76 1.2 39.93 1.2 39.93 1.73 39.93 1.73 39.93 2 39.93 2 40.21 2 41.17 2 41.17 1.73 40.21 1.73"/><polygon class="cls-3" points="42.96 1.73 42.96 1.47 43.78 1.47 43.78 0.67 41.31 0.67 41.31 1.47 42.13 1.47 42.13 1.73 41.17 1.73 41.17 2 42.13 2 42.4 2 42.41 2 42.41 1.2 41.58 1.2 41.58 0.93 42.41 0.93 42.68 0.93 43.51 0.93 43.51 1.2 42.68 1.2 42.68 1.73 42.68 1.73 42.68 2 42.68 2 42.96 2 43.92 2 43.92 1.73 42.96 1.73"/><polygon class="cls-3" points="45.71 1.73 45.71 1.47 46.53 1.47 46.53 0.67 44.06 0.67 44.06 1.47 44.88 1.47 44.88 1.73 43.92 1.73 43.92 2 44.88 2 45.15 2 45.16 2 45.16 1.2 44.33 1.2 44.33 0.93 45.16 0.93 45.43 0.93 46.26 0.93 46.26 1.2 45.43 1.2 45.43 1.73 45.43 1.73 45.43 2 45.43 2 45.71 2 46.67 2 46.67 1.73 45.71 1.73"/><polygon class="cls-3" points="47.6 4.46 47.87 4.46 47.87 5.28 48.67 5.28 48.67 2.81 47.87 2.81 47.87 3.63 47.6 3.63 47.6 2.67 47.33 2.67 47.33 3.63 47.33 3.9 47.33 3.91 48.13 3.91 48.13 3.08 48.4 3.08 48.4 3.91 48.4 4.18 48.4 5.01 48.13 5.01 48.13 4.18 47.6 4.18 47.6 4.18 47.33 4.18 47.33 4.18 47.33 4.46 47.33 5.42 47.6 5.42 47.6 4.46"/><polygon class="cls-3" points="47.6 7.21 47.87 7.21 47.87 8.03 48.67 8.03 48.67 5.56 47.87 5.56 47.87 6.38 47.6 6.38 47.6 5.42 47.33 5.42 47.33 6.38 47.33 6.65 47.33 6.66 48.13 6.66 48.13 5.83 48.4 5.83 48.4 6.66 48.4 6.93 48.4 7.76 48.13 7.76 48.13 6.93 47.6 6.93 47.6 6.93 47.33 6.93 47.33 6.93 47.33 7.21 47.33 8.17 47.6 8.17 47.6 7.21"/><polygon class="cls-3" points="47.6 9.96 47.87 9.96 47.87 10.78 48.67 10.78 48.67 8.31 47.87 8.31 47.87 9.13 47.6 9.13 47.6 8.17 47.33 8.17 47.33 9.13 47.33 9.4 47.33 9.41 48.13 9.41 48.13 8.58 48.4 8.58 48.4 9.41 48.4 9.68 48.4 10.51 48.13 10.51 48.13 9.68 47.6 9.68 47.6 9.68 47.33 9.68 47.33 9.68 47.33 9.96 47.33 10.92 47.6 10.92 47.6 9.96"/><polygon class="cls-3" points="47.6 12.71 47.87 12.71 47.87 13.53 48.67 13.53 48.67 11.06 47.87 11.06 47.87 11.88 47.6 11.88 47.6 10.92 47.33 10.92 47.33 11.88 47.33 12.15 47.33 12.16 48.13 12.16 48.13 11.33 48.4 11.33 48.4 12.16 48.4 12.43 48.4 13.26 48.13 13.26 48.13 12.43 47.6 12.43 47.6 12.43 47.33 12.43 47.33 12.43 47.33 12.71 47.33 13.67 47.6 13.67 47.6 12.71"/><polygon class="cls-3" points="47.6 15.46 47.87 15.46 47.87 16.28 48.67 16.28 48.67 13.81 47.87 13.81 47.87 14.63 47.6 14.63 47.6 13.67 47.33 13.67 47.33 14.63 47.33 14.9 47.33 14.91 48.13 14.91 48.13 14.08 48.4 14.08 48.4 14.91 48.4 15.18 48.4 16.01 48.13 16.01 48.13 15.18 47.6 15.18 47.6 15.18 47.33 15.18 47.33 15.18 47.33 15.46 47.33 16.42 47.6 16.42 47.6 15.46"/><polygon class="cls-3" points="47.6 18.21 47.87 18.21 47.87 19.03 48.67 19.03 48.67 16.56 47.87 16.56 47.87 17.38 47.6 17.38 47.6 16.42 47.33 16.42 47.33 17.38 47.33 17.65 47.33 17.66 48.13 17.66 48.13 16.83 48.4 16.83 48.4 17.66 48.4 17.93 48.4 18.76 48.13 18.76 48.13 17.93 47.6 17.93 47.6 17.93 47.33 17.93 47.33 17.93 47.33 18.21 47.33 19.17 47.6 19.17 47.6 18.21"/><polygon class="cls-3" points="47.6 20.96 47.87 20.96 47.87 21.78 48.67 21.78 48.67 19.31 47.87 19.31 47.87 20.13 47.6 20.13 47.6 19.17 47.33 19.17 47.33 20.13 47.33 20.4 47.33 20.41 48.13 20.41 48.13 19.58 48.4 19.58 48.4 20.41 48.4 20.68 48.4 21.51 48.13 21.51 48.13 20.68 47.6 20.68 47.6 20.68 47.33 20.68 47.33 20.68 47.33 20.96 47.33 21.92 47.6 21.92 47.6 20.96"/><polygon class="cls-3" points="47.6 23.71 47.87 23.71 47.87 24.53 48.67 24.53 48.67 22.06 47.87 22.06 47.87 22.88 47.6 22.88 47.6 21.92 47.33 21.92 47.33 22.88 47.33 23.15 47.33 23.16 48.13 23.16 48.13 22.33 48.4 22.33 48.4 23.16 48.4 23.43 48.4 24.26 48.13 24.26 48.13 23.43 47.6 23.43 47.6 23.43 47.33 23.43 47.33 23.43 47.33 23.71 47.33 24.67 47.6 24.67 47.6 23.71"/><polygon class="cls-3" points="47.6 26.46 47.87 26.46 47.87 27.28 48.67 27.28 48.67 24.81 47.87 24.81 47.87 25.63 47.6 25.63 47.6 24.67 47.33 24.67 47.33 25.63 47.33 25.9 47.33 25.91 48.13 25.91 48.13 25.08 48.4 25.08 48.4 25.91 48.4 26.18 48.4 27.01 48.13 27.01 48.13 26.18 47.6 26.18 47.6 26.18 47.33 26.18 47.33 26.18 47.33 26.46 47.33 27.42 47.6 27.42 47.6 26.46"/><polygon class="cls-3" points="47.6 29.21 47.87 29.21 47.87 30.03 48.67 30.03 48.67 27.56 47.87 27.56 47.87 28.38 47.6 28.38 47.6 27.42 47.33 27.42 47.33 28.38 47.33 28.65 47.33 28.66 48.13 28.66 48.13 27.83 48.4 27.83 48.4 28.66 48.4 28.93 48.4 29.76 48.13 29.76 48.13 28.93 47.6 28.93 47.6 28.93 47.33 28.93 47.33 28.93 47.33 29.21 47.33 30.17 47.6 30.17 47.6 29.21"/><polygon class="cls-3" points="47.6 31.96 47.87 31.96 47.87 32.78 48.67 32.78 48.67 30.31 47.87 30.31 47.87 31.13 47.6 31.13 47.6 30.17 47.33 30.17 47.33 31.13 47.33 31.4 47.33 31.41 48.13 31.41 48.13 30.58 48.4 30.58 48.4 31.41 48.4 31.68 48.4 32.51 48.13 32.51 48.13 31.68 47.6 31.68 47.6 31.68 47.33 31.68 47.33 31.68 47.33 31.96 47.33 32.92 47.6 32.92 47.6 31.96"/><polygon class="cls-3" points="47.6 34.71 47.87 34.71 47.87 35.53 48.67 35.53 48.67 33.06 47.87 33.06 47.87 33.88 47.6 33.88 47.6 32.92 47.33 32.92 47.33 33.88 47.33 34.15 47.33 34.16 48.13 34.16 48.13 33.33 48.4 33.33 48.4 34.16 48.4 34.43 48.4 35.26 48.13 35.26 48.13 34.43 47.6 34.43 47.6 34.43 47.33 34.43 47.33 34.43 47.33 34.71 47.33 35.67 47.6 35.67 47.6 34.71"/><polygon class="cls-3" points="47.6 37.46 47.87 37.46 47.87 38.28 48.67 38.28 48.67 35.81 47.87 35.81 47.87 36.63 47.6 36.63 47.6 35.67 47.33 35.67 47.33 36.63 47.33 36.9 47.33 36.91 48.13 36.91 48.13 36.08 48.4 36.08 48.4 36.91 48.4 37.18 48.4 38.01 48.13 38.01 48.13 37.18 47.6 37.18 47.6 37.18 47.33 37.18 47.33 37.18 47.33 37.46 47.33 38.42 47.6 38.42 47.6 37.46"/><polygon class="cls-3" points="47.6 40.21 47.87 40.21 47.87 41.03 48.67 41.03 48.67 38.56 47.87 38.56 47.87 39.38 47.6 39.38 47.6 38.42 47.33 38.42 47.33 39.38 47.33 39.65 47.33 39.66 48.13 39.66 48.13 38.83 48.4 38.83 48.4 39.66 48.4 39.93 48.4 40.76 48.13 40.76 48.13 39.93 47.6 39.93 47.6 39.93 47.33 39.93 47.33 39.93 47.33 40.21 47.33 41.17 47.6 41.17 47.6 40.21"/><polygon class="cls-3" points="47.6 42.96 47.87 42.96 47.87 43.78 48.67 43.78 48.67 41.31 47.87 41.31 47.87 42.13 47.6 42.13 47.6 41.17 47.33 41.17 47.33 42.13 47.33 42.4 47.33 42.41 48.13 42.41 48.13 41.58 48.4 41.58 48.4 42.41 48.4 42.68 48.4 43.51 48.13 43.51 48.13 42.68 47.6 42.68 47.6 42.68 47.33 42.68 47.33 42.68 47.33 42.96 47.33 43.92 47.6 43.92 47.6 42.96"/><polygon class="cls-3" points="47.6 45.71 47.87 45.71 47.87 46.53 48.67 46.53 48.67 44.06 47.87 44.06 47.87 44.88 47.6 44.88 47.6 43.92 47.33 43.92 47.33 44.88 47.33 45.15 47.33 45.16 48.13 45.16 48.13 44.33 48.4 44.33 48.4 45.16 48.4 45.43 48.4 46.26 48.13 46.26 48.13 45.43 47.6 45.43 47.6 45.43 47.33 45.43 47.33 45.43 47.33 45.71 47.33 46.67 47.6 46.67 47.6 45.71"/><polygon class="cls-3" points="44.88 47.6 44.88 47.87 44.05 47.87 44.05 48.67 46.53 48.67 46.53 47.87 45.7 47.87 45.7 47.6 46.67 47.6 46.67 47.33 45.7 47.33 45.43 47.33 45.43 47.33 45.43 48.13 46.25 48.13 46.25 48.4 45.43 48.4 45.15 48.4 44.33 48.4 44.33 48.13 45.15 48.13 45.15 47.6 45.15 47.6 45.15 47.33 45.15 47.33 44.88 47.33 43.92 47.33 43.92 47.6 44.88 47.6"/><polygon class="cls-3" points="42.13 47.6 42.13 47.87 41.3 47.87 41.3 48.67 43.78 48.67 43.78 47.87 42.95 47.87 42.95 47.6 43.92 47.6 43.92 47.33 42.95 47.33 42.68 47.33 42.68 47.33 42.68 48.13 43.5 48.13 43.5 48.4 42.68 48.4 42.4 48.4 41.58 48.4 41.58 48.13 42.4 48.13 42.4 47.6 42.4 47.6 42.4 47.33 42.4 47.33 42.13 47.33 41.17 47.33 41.17 47.6 42.13 47.6"/><polygon class="cls-3" points="39.38 47.6 39.38 47.87 38.55 47.87 38.55 48.67 41.03 48.67 41.03 47.87 40.2 47.87 40.2 47.6 41.17 47.6 41.17 47.33 40.2 47.33 39.93 47.33 39.93 47.33 39.93 48.13 40.75 48.13 40.75 48.4 39.93 48.4 39.65 48.4 38.83 48.4 38.83 48.13 39.65 48.13 39.65 47.6 39.65 47.6 39.65 47.33 39.65 47.33 39.38 47.33 38.42 47.33 38.42 47.6 39.38 47.6"/><polygon class="cls-3" points="36.63 47.6 36.63 47.87 35.8 47.87 35.8 48.67 38.28 48.67 38.28 47.87 37.45 47.87 37.45 47.6 38.42 47.6 38.42 47.33 37.45 47.33 37.18 47.33 37.18 47.33 37.18 48.13 38 48.13 38 48.4 37.18 48.4 36.9 48.4 36.08 48.4 36.08 48.13 36.9 48.13 36.9 47.6 36.9 47.6 36.9 47.33 36.9 47.33 36.63 47.33 35.67 47.33 35.67 47.6 36.63 47.6"/><polygon class="cls-3" points="33.88 47.6 33.88 47.87 33.05 47.87 33.05 48.67 35.53 48.67 35.53 47.87 34.7 47.87 34.7 47.6 35.67 47.6 35.67 47.33 34.7 47.33 34.43 47.33 34.43 47.33 34.43 48.13 35.25 48.13 35.25 48.4 34.43 48.4 34.15 48.4 33.33 48.4 33.33 48.13 34.15 48.13 34.15 47.6 34.15 47.6 34.15 47.33 34.15 47.33 33.88 47.33 32.92 47.33 32.92 47.6 33.88 47.6"/><polygon class="cls-3" points="31.13 47.6 31.13 47.87 30.3 47.87 30.3 48.67 32.78 48.67 32.78 47.87 31.95 47.87 31.95 47.6 32.92 47.6 32.92 47.33 31.95 47.33 31.68 47.33 31.68 47.33 31.68 48.13 32.5 48.13 32.5 48.4 31.68 48.4 31.4 48.4 30.58 48.4 30.58 48.13 31.4 48.13 31.4 47.6 31.4 47.6 31.4 47.33 31.4 47.33 31.13 47.33 30.17 47.33 30.17 47.6 31.13 47.6"/><polygon class="cls-3" points="28.38 47.6 28.38 47.87 27.55 47.87 27.55 48.67 30.03 48.67 30.03 47.87 29.2 47.87 29.2 47.6 30.17 47.6 30.17 47.33 29.2 47.33 28.93 47.33 28.93 47.33 28.93 48.13 29.75 48.13 29.75 48.4 28.93 48.4 28.65 48.4 27.83 48.4 27.83 48.13 28.65 48.13 28.65 47.6 28.65 47.6 28.65 47.33 28.65 47.33 28.38 47.33 27.42 47.33 27.42 47.6 28.38 47.6"/><polygon class="cls-3" points="25.63 47.6 25.63 47.87 24.8 47.87 24.8 48.67 27.28 48.67 27.28 47.87 26.45 47.87 26.45 47.6 27.42 47.6 27.42 47.33 26.45 47.33 26.18 47.33 26.18 47.33 26.18 48.13 27 48.13 27 48.4 26.18 48.4 25.9 48.4 25.08 48.4 25.08 48.13 25.9 48.13 25.9 47.6 25.9 47.6 25.9 47.33 25.9 47.33 25.63 47.33 24.67 47.33 24.67 47.6 25.63 47.6"/><polygon class="cls-3" points="22.88 47.6 22.88 47.87 22.05 47.87 22.05 48.67 24.53 48.67 24.53 47.87 23.7 47.87 23.7 47.6 24.67 47.6 24.67 47.33 23.7 47.33 23.43 47.33 23.43 47.33 23.43 48.13 24.25 48.13 24.25 48.4 23.43 48.4 23.15 48.4 22.33 48.4 22.33 48.13 23.15 48.13 23.15 47.6 23.15 47.6 23.15 47.33 23.15 47.33 22.88 47.33 21.92 47.33 21.92 47.6 22.88 47.6"/><polygon class="cls-3" points="20.13 47.6 20.13 47.87 19.3 47.87 19.3 48.67 21.78 48.67 21.78 47.87 20.95 47.87 20.95 47.6 21.92 47.6 21.92 47.33 20.95 47.33 20.68 47.33 20.68 47.33 20.68 48.13 21.5 48.13 21.5 48.4 20.68 48.4 20.4 48.4 19.58 48.4 19.58 48.13 20.4 48.13 20.4 47.6 20.4 47.6 20.4 47.33 20.4 47.33 20.13 47.33 19.17 47.33 19.17 47.6 20.13 47.6"/><polygon class="cls-3" points="17.38 47.6 17.38 47.87 16.55 47.87 16.55 48.67 19.03 48.67 19.03 47.87 18.2 47.87 18.2 47.6 19.17 47.6 19.17 47.33 18.2 47.33 17.93 47.33 17.93 47.33 17.93 48.13 18.75 48.13 18.75 48.4 17.93 48.4 17.65 48.4 16.83 48.4 16.83 48.13 17.65 48.13 17.65 47.6 17.65 47.6 17.65 47.33 17.65 47.33 17.38 47.33 16.42 47.33 16.42 47.6 17.38 47.6"/><polygon class="cls-3" points="14.63 47.6 14.63 47.87 13.8 47.87 13.8 48.67 16.28 48.67 16.28 47.87 15.45 47.87 15.45 47.6 16.42 47.6 16.42 47.33 15.45 47.33 15.18 47.33 15.18 47.33 15.18 48.13 16 48.13 16 48.4 15.18 48.4 14.9 48.4 14.08 48.4 14.08 48.13 14.9 48.13 14.9 47.6 14.9 47.6 14.9 47.33 14.9 47.33 14.63 47.33 13.67 47.33 13.67 47.6 14.63 47.6"/><polygon class="cls-3" points="11.88 47.6 11.88 47.87 11.05 47.87 11.05 48.67 13.53 48.67 13.53 47.87 12.7 47.87 12.7 47.6 13.67 47.6 13.67 47.33 12.7 47.33 12.43 47.33 12.43 47.33 12.43 48.13 13.25 48.13 13.25 48.4 12.43 48.4 12.15 48.4 11.33 48.4 11.33 48.13 12.15 48.13 12.15 47.6 12.15 47.6 12.15 47.33 12.15 47.33 11.88 47.33 10.92 47.33 10.92 47.6 11.88 47.6"/><polygon class="cls-3" points="9.13 47.6 9.13 47.87 8.3 47.87 8.3 48.67 10.78 48.67 10.78 47.87 9.95 47.87 9.95 47.6 10.92 47.6 10.92 47.33 9.95 47.33 9.68 47.33 9.68 47.33 9.68 48.13 10.5 48.13 10.5 48.4 9.68 48.4 9.4 48.4 8.58 48.4 8.58 48.13 9.4 48.13 9.4 47.6 9.4 47.6 9.4 47.33 9.4 47.33 9.13 47.33 8.17 47.33 8.17 47.6 9.13 47.6"/><polygon class="cls-3" points="6.38 47.6 6.38 47.87 5.55 47.87 5.55 48.67 8.03 48.67 8.03 47.87 7.2 47.87 7.2 47.6 8.17 47.6 8.17 47.33 7.2 47.33 6.93 47.33 6.93 47.33 6.93 48.13 7.75 48.13 7.75 48.4 6.93 48.4 6.65 48.4 5.83 48.4 5.83 48.13 6.65 48.13 6.65 47.6 6.65 47.6 6.65 47.33 6.65 47.33 6.38 47.33 5.42 47.33 5.42 47.6 6.38 47.6"/><polygon class="cls-3" points="3.63 47.6 3.63 47.87 2.8 47.87 2.8 48.67 5.28 48.67 5.28 47.87 4.45 47.87 4.45 47.6 5.42 47.6 5.42 47.33 4.45 47.33 4.18 47.33 4.18 47.33 4.18 48.13 5 48.13 5 48.4 4.18 48.4 3.9 48.4 3.08 48.4 3.08 48.13 3.9 48.13 3.9 47.6 3.9 47.6 3.9 47.33 3.9 47.33 3.63 47.33 2.67 47.33 2.67 47.6 3.63 47.6"/><g class="cls-4"><polygon class="cls-3" points="1.73 0.93 1.47 0.93 1.47 0.13 0.67 0.13 0.67 2.53 1.47 2.53 1.47 1.73 1.73 1.73 1.73 2.67 2 2.67 2 1.73 2 1.47 2 1.47 1.2 1.47 1.2 2.27 0.93 2.27 0.93 1.47 0.93 1.2 0.93 0.4 1.2 0.4 1.2 1.2 1.73 1.2 1.73 1.2 2 1.2 2 1.2 2 0.93 2 0 1.73 0 1.73 0.93"/></g><g class="cls-5"><polygon class="cls-3" points="1.74 1.73 1.74 1.47 2.54 1.47 2.54 0.67 0.14 0.67 0.14 1.47 0.94 1.47 0.94 1.73 0 1.73 0 2 0.94 2 1.2 2 1.2 2 1.2 1.2 0.4 1.2 0.4 0.93 1.2 0.93 1.47 0.93 2.27 0.93 2.27 1.2 1.47 1.2 1.47 1.73 1.47 1.73 1.47 2 1.47 2 1.74 2 2.67 2 2.67 1.73 1.74 1.73"/></g><g class="cls-6"><polygon class="cls-3" points="48.4 1.73 48.4 1.47 49.2 1.47 49.2 0.67 46.8 0.67 46.8 1.47 47.6 1.47 47.6 1.73 46.67 1.73 46.67 2 47.6 2 47.87 2 47.87 2 47.87 1.2 47.07 1.2 47.07 0.93 47.87 0.93 48.13 0.93 48.94 0.93 48.94 1.2 48.13 1.2 48.13 1.73 48.13 1.73 48.13 2 48.13 2 48.4 2 49.33 2 49.33 1.73 48.4 1.73"/></g><g class="cls-7"><polygon class="cls-3" points="47.6 1.74 47.87 1.74 47.87 2.54 48.67 2.54 48.67 0.14 47.87 0.14 47.87 0.94 47.6 0.94 47.6 0 47.33 0 47.33 0.94 47.33 1.2 47.33 1.2 48.13 1.2 48.13 0.4 48.4 0.4 48.4 1.2 48.4 1.47 48.4 2.27 48.13 2.27 48.13 1.47 47.6 1.47 47.6 1.47 47.33 1.47 47.33 1.47 47.33 1.74 47.33 2.67 47.6 2.67 47.6 1.74"/></g><g class="cls-8"><polygon class="cls-3" points="47.6 48.4 47.87 48.4 47.87 49.2 48.67 49.2 48.67 46.8 47.87 46.8 47.87 47.6 47.6 47.6 47.6 46.67 47.33 46.67 47.33 47.6 47.33 47.87 47.33 47.87 48.13 47.87 48.13 47.07 48.4 47.07 48.4 47.87 48.4 48.13 48.4 48.94 48.13 48.94 48.13 48.13 47.6 48.13 47.6 48.13 47.33 48.13 47.33 48.13 47.33 48.4 47.33 49.33 47.6 49.33 47.6 48.4"/></g><g class="cls-9"><polygon class="cls-3" points="47.6 47.6 47.6 47.87 46.8 47.87 46.8 48.67 49.2 48.67 49.2 47.87 48.4 47.87 48.4 47.6 49.33 47.6 49.33 47.33 48.4 47.33 48.13 47.33 48.13 47.33 48.13 48.13 48.93 48.13 48.93 48.4 48.13 48.4 47.87 48.4 47.06 48.4 47.06 48.13 47.87 48.13 47.87 47.6 47.87 47.6 47.87 47.33 47.87 47.33 47.6 47.33 46.67 47.33 46.67 47.6 47.6 47.6"/></g><g class="cls-10"><polygon class="cls-3" points="0.93 47.6 0.93 47.87 0.13 47.87 0.13 48.67 2.53 48.67 2.53 47.87 1.73 47.87 1.73 47.6 2.67 47.6 2.67 47.33 1.73 47.33 1.47 47.33 1.47 47.33 1.47 48.13 2.27 48.13 2.27 48.4 1.47 48.4 1.2 48.4 0.4 48.4 0.4 48.13 1.2 48.13 1.2 47.6 1.2 47.6 1.2 47.33 1.2 47.33 0.93 47.33 0 47.33 0 47.6 0.93 47.6"/></g><g class="cls-11"><polygon class="cls-3" points="1.73 47.6 1.47 47.6 1.47 46.8 0.67 46.8 0.67 49.2 1.47 49.2 1.47 48.4 1.73 48.4 1.73 49.33 2 49.33 2 48.4 2 48.13 2 48.13 1.2 48.13 1.2 48.93 0.93 48.93 0.93 48.13 0.93 47.87 0.93 47.06 1.2 47.06 1.2 47.87 1.73 47.87 1.73 47.87 2 47.87 2 47.87 2 47.6 2 46.67 1.73 46.67 1.73 47.6"/></g><rect class="cls-1" x="27.67" y="25.87" width="6" height="2"/><polygon class="cls-12" points="8.33 8.33 8.33 41 17 41 17 17 41 17 41 8.33 8.33 8.33"/><path class="cls-12" d="M18.33,40.33H27V33.67H40.33V18.33h-22ZM27,25.2h6v2H27Z" transform="translate(0.67 0.67)"/><rect class="cls-12" x="29.67" y="36.33" width="11.33" height="4.67"/></g></g></svg>